<svg width="111" height="28" viewBox="0 0 111 28" fill="none" xmlns="http://www.w3.org/2000/svg">
<rect x="0.5" y="0.5" width="110" height="27" rx="13.5" fill="#141414"/>
<rect x="0.5" y="0.5" width="110" height="27" rx="13.5" stroke="#262626"/>
<path d="M19.9997 9.33325V18.6666M15.333 13.9999H24.6663" stroke="white" stroke-width="1.67" stroke-linecap="round" stroke-linejoin="round"/>
<path d="M32.24 18.5L35.132 9.86H36.62L39.512 18.5H38.402L35.696 10.484H36.032L33.35 18.5H32.24ZM33.632 16.478V15.476H38.12V16.478H33.632ZM43.1301 18.68C42.5261 18.68 42.0081 18.53 41.5761 18.23C41.1441 17.926 40.8101 17.516 40.5741 17C40.3421 16.484 40.2261 15.902 40.2261 15.254C40.2261 14.606 40.3421 14.024 40.5741 13.508C40.8101 12.992 41.1441 12.586 41.5761 12.29C42.0081 11.99 42.5241 11.84 43.1241 11.84C43.7361 11.84 44.2501 11.988 44.6661 12.284C45.0821 12.58 45.3961 12.986 45.6081 13.502C45.8241 14.018 45.9321 14.602 45.9321 15.254C45.9321 15.898 45.8241 16.48 45.6081 17C45.3961 17.516 45.0821 17.926 44.6661 18.23C44.2501 18.53 43.7381 18.68 43.1301 18.68ZM43.2621 17.702C43.6981 17.702 44.0561 17.598 44.3361 17.39C44.6161 17.178 44.8221 16.888 44.9541 16.52C45.0901 16.148 45.1581 15.726 45.1581 15.254C45.1581 14.774 45.0901 14.352 44.9541 13.988C44.8221 13.62 44.6181 13.334 44.3421 13.13C44.0661 12.922 43.7161 12.818 43.2921 12.818C42.8521 12.818 42.4881 12.926 42.2001 13.142C41.9161 13.358 41.7041 13.65 41.5641 14.018C41.4281 14.386 41.3601 14.798 41.3601 15.254C41.3601 15.714 41.4301 16.13 41.5701 16.502C41.7101 16.87 41.9201 17.162 42.2001 17.378C42.4841 17.594 42.8381 17.702 43.2621 17.702ZM45.1581 18.5V13.73H45.0381V9.86H46.1121V18.5H45.1581ZM50.3371 18.68C49.7331 18.68 49.2151 18.53 48.7831 18.23C48.3511 17.926 48.0171 17.516 47.7811 17C47.5491 16.484 47.4331 15.902 47.4331 15.254C47.4331 14.606 47.5491 14.024 47.7811 13.508C48.0171 12.992 48.3511 12.586 48.7831 12.29C49.2151 11.99 49.7311 11.84 50.3311 11.84C50.9431 11.84 51.4571 11.988 51.8731 12.284C52.2891 12.58 52.6031 12.986 52.8151 13.502C53.0311 14.018 53.1391 14.602 53.1391 15.254C53.1391 15.898 53.0311 16.48 52.8151 17C52.6031 17.516 52.2891 17.926 51.8731 18.23C51.4571 18.53 50.9451 18.68 50.3371 18.68ZM50.4691 17.702C50.9051 17.702 51.2631 17.598 51.5431 17.39C51.8231 17.178 52.0291 16.888 52.1611 16.52C52.2971 16.148 52.3651 15.726 52.3651 15.254C52.3651 14.774 52.2971 14.352 52.1611 13.988C52.0291 13.62 51.8251 13.334 51.5491 13.13C51.2731 12.922 50.9231 12.818 50.4991 12.818C50.0591 12.818 49.6951 12.926 49.4071 13.142C49.1231 13.358 48.9111 13.65 48.7711 14.018C48.6351 14.386 48.5671 14.798 48.5671 15.254C48.5671 15.714 48.6371 16.13 48.7771 16.502C48.9171 16.87 49.1271 17.162 49.4071 17.378C49.6911 17.594 50.0451 17.702 50.4691 17.702ZM52.3651 18.5V13.73H52.2451V9.86H53.3191V18.5H52.3651ZM60.4685 18.68C59.8565 18.68 59.3045 18.576 58.8125 18.368C58.3245 18.16 57.9205 17.864 57.6005 17.48C57.2845 17.092 57.0785 16.634 56.9825 16.106L58.0865 15.932C58.2265 16.476 58.5165 16.902 58.9565 17.21C59.4005 17.514 59.9225 17.666 60.5225 17.666C60.9105 17.666 61.2605 17.606 61.5725 17.486C61.8885 17.362 62.1385 17.186 62.3225 16.958C62.5065 16.73 62.5985 16.46 62.5985 16.148C62.5985 15.956 62.5645 15.792 62.4965 15.656C62.4325 15.516 62.3425 15.398 62.2265 15.302C62.1145 15.202 61.9865 15.118 61.8425 15.05C61.6985 14.982 61.5485 14.926 61.3925 14.882L59.1905 14.228C58.9505 14.156 58.7185 14.066 58.4945 13.958C58.2705 13.846 58.0705 13.708 57.8945 13.544C57.7185 13.376 57.5785 13.176 57.4745 12.944C57.3705 12.708 57.3185 12.43 57.3185 12.11C57.3185 11.598 57.4505 11.162 57.7145 10.802C57.9825 10.438 58.3445 10.16 58.8005 9.968C59.2565 9.776 59.7705 9.682 60.3425 9.686C60.9225 9.69 61.4405 9.794 61.8965 9.998C62.3565 10.198 62.7365 10.486 63.0365 10.862C63.3405 11.238 63.5445 11.688 63.6485 12.212L62.5145 12.41C62.4545 12.058 62.3205 11.756 62.1125 11.504C61.9085 11.248 61.6525 11.052 61.3445 10.916C61.0365 10.776 60.6985 10.704 60.3305 10.7C59.9785 10.696 59.6605 10.752 59.3765 10.868C59.0925 10.984 58.8665 11.146 58.6985 11.354C58.5305 11.558 58.4465 11.794 58.4465 12.062C58.4465 12.326 58.5225 12.54 58.6745 12.704C58.8265 12.864 59.0125 12.992 59.2325 13.088C59.4565 13.18 59.6745 13.256 59.8865 13.316L61.5305 13.79C61.7185 13.842 61.9345 13.914 62.1785 14.006C62.4265 14.098 62.6665 14.228 62.8985 14.396C63.1305 14.56 63.3225 14.78 63.4745 15.056C63.6265 15.328 63.7025 15.672 63.7025 16.088C63.7025 16.504 63.6185 16.874 63.4505 17.198C63.2865 17.522 63.0565 17.794 62.7605 18.014C62.4645 18.23 62.1205 18.394 61.7285 18.506C61.3365 18.622 60.9165 18.68 60.4685 18.68ZM67.7691 18.68C67.1331 18.68 66.5771 18.54 66.1011 18.26C65.6291 17.976 65.2611 17.582 64.9971 17.078C64.7331 16.57 64.6011 15.978 64.6011 15.302C64.6011 14.594 64.7311 13.982 64.9911 13.466C65.2511 12.946 65.6131 12.546 66.0771 12.266C66.5451 11.982 67.0931 11.84 67.7211 11.84C68.3731 11.84 68.9271 11.99 69.3831 12.29C69.8431 12.59 70.1871 13.018 70.4151 13.574C70.6471 14.13 70.7471 14.792 70.7151 15.56H69.6351V15.176C69.6231 14.38 69.4611 13.786 69.1491 13.394C68.8371 12.998 68.3731 12.8 67.7571 12.8C67.0971 12.8 66.5951 13.012 66.2511 13.436C65.9071 13.86 65.7351 14.468 65.7351 15.26C65.7351 16.024 65.9071 16.616 66.2511 17.036C66.5951 17.456 67.0851 17.666 67.7211 17.666C68.1491 17.666 68.5211 17.568 68.8371 17.372C69.1531 17.176 69.4011 16.894 69.5811 16.526L70.6071 16.88C70.3551 17.452 69.9751 17.896 69.4671 18.212C68.9631 18.524 68.3971 18.68 67.7691 18.68ZM65.3751 15.56V14.702H70.1631V15.56H65.3751ZM73.7758 18.68C73.2918 18.68 72.8858 18.592 72.5578 18.416C72.2338 18.236 71.9878 18 71.8198 17.708C71.6558 17.416 71.5738 17.096 71.5738 16.748C71.5738 16.408 71.6378 16.114 71.7658 15.866C71.8978 15.614 72.0818 15.406 72.3178 15.242C72.5538 15.074 72.8358 14.942 73.1638 14.846C73.4718 14.762 73.8158 14.69 74.1958 14.63C74.5798 14.566 74.9678 14.508 75.3598 14.456C75.7518 14.404 76.1178 14.354 76.4578 14.306L76.0738 14.528C76.0858 13.952 75.9698 13.526 75.7258 13.25C75.4858 12.974 75.0698 12.836 74.4778 12.836C74.0858 12.836 73.7418 12.926 73.4458 13.106C73.1538 13.282 72.9478 13.57 72.8278 13.97L71.8138 13.664C71.9698 13.096 72.2718 12.65 72.7198 12.326C73.1678 12.002 73.7578 11.84 74.4898 11.84C75.0778 11.84 75.5818 11.946 76.0018 12.158C76.4258 12.366 76.7298 12.682 76.9138 13.106C77.0058 13.306 77.0638 13.524 77.0878 13.76C77.1118 13.992 77.1237 14.236 77.1237 14.492V18.5H76.1758V16.946L76.3978 17.09C76.1538 17.614 75.8118 18.01 75.3718 18.278C74.9358 18.546 74.4038 18.68 73.7758 18.68ZM73.9378 17.786C74.3218 17.786 74.6538 17.718 74.9338 17.582C75.2178 17.442 75.4458 17.26 75.6178 17.036C75.7898 16.808 75.9018 16.56 75.9538 16.292C76.0138 16.092 76.0458 15.87 76.0498 15.626C76.0578 15.378 76.0618 15.188 76.0618 15.056L76.4338 15.218C76.0858 15.266 75.7438 15.312 75.4078 15.356C75.0718 15.4 74.7538 15.448 74.4538 15.5C74.1538 15.548 73.8838 15.606 73.6438 15.674C73.4678 15.73 73.3018 15.802 73.1458 15.89C72.9938 15.978 72.8698 16.092 72.7738 16.232C72.6817 16.368 72.6357 16.538 72.6357 16.742C72.6357 16.918 72.6798 17.086 72.7678 17.246C72.8598 17.406 72.9998 17.536 73.1878 17.636C73.3798 17.736 73.6298 17.786 73.9378 17.786ZM81.1318 18.674C80.3598 18.674 79.7258 18.506 79.2298 18.17C78.7378 17.83 78.4358 17.356 78.3238 16.748L79.4158 16.574C79.5038 16.926 79.7058 17.206 80.0218 17.414C80.3378 17.618 80.7298 17.72 81.1978 17.72C81.6418 17.72 81.9898 17.628 82.2418 17.444C82.4938 17.26 82.6198 17.01 82.6198 16.694C82.6198 16.51 82.5778 16.362 82.4938 16.25C82.4098 16.134 82.2358 16.026 81.9718 15.926C81.7118 15.826 81.3178 15.706 80.7898 15.566C80.2178 15.414 79.7678 15.256 79.4398 15.092C79.1118 14.928 78.8778 14.738 78.7378 14.522C78.5978 14.306 78.5278 14.044 78.5278 13.736C78.5278 13.356 78.6318 13.024 78.8398 12.74C79.0478 12.452 79.3378 12.23 79.7098 12.074C80.0858 11.918 80.5218 11.84 81.0178 11.84C81.5098 11.84 81.9498 11.918 82.3378 12.074C82.7258 12.23 83.0378 12.452 83.2738 12.74C83.5138 13.024 83.6558 13.356 83.6998 13.736L82.6078 13.934C82.5558 13.586 82.3878 13.312 82.1038 13.112C81.8238 12.912 81.4618 12.806 81.0178 12.794C80.5978 12.778 80.2558 12.852 79.9918 13.016C79.7318 13.18 79.6018 13.402 79.6018 13.682C79.6018 13.838 79.6498 13.972 79.7458 14.084C79.8458 14.196 80.0278 14.302 80.2918 14.402C80.5598 14.502 80.9478 14.616 81.4558 14.744C82.0278 14.888 82.4778 15.046 82.8058 15.218C83.1378 15.386 83.3738 15.586 83.5138 15.818C83.6538 16.046 83.7238 16.328 83.7238 16.664C83.7238 17.288 83.4938 17.78 83.0338 18.14C82.5738 18.496 81.9398 18.674 81.1318 18.674ZM87.807 18.68C87.163 18.68 86.607 18.534 86.139 18.242C85.675 17.95 85.317 17.546 85.065 17.03C84.813 16.514 84.687 15.922 84.687 15.254C84.687 14.574 84.815 13.978 85.071 13.466C85.327 12.954 85.689 12.556 86.157 12.272C86.625 11.984 87.175 11.84 87.807 11.84C88.455 11.84 89.013 11.986 89.481 12.278C89.949 12.566 90.307 12.968 90.555 13.484C90.807 13.996 90.933 14.586 90.933 15.254C90.933 15.93 90.807 16.526 90.555 17.042C90.303 17.554 89.943 17.956 89.475 18.248C89.007 18.536 88.451 18.68 87.807 18.68ZM87.807 17.666C88.479 17.666 88.979 17.442 89.307 16.994C89.635 16.546 89.799 15.966 89.799 15.254C89.799 14.522 89.633 13.94 89.301 13.508C88.969 13.072 88.471 12.854 87.807 12.854C87.355 12.854 86.983 12.956 86.691 13.16C86.399 13.364 86.181 13.646 86.037 14.006C85.893 14.366 85.821 14.782 85.821 15.254C85.821 15.982 85.989 16.566 86.325 17.006C86.661 17.446 87.155 17.666 87.807 17.666ZM96.8681 18.5V15.254C96.8681 14.946 96.8401 14.65 96.7841 14.366C96.7321 14.082 96.6381 13.828 96.5021 13.604C96.3701 13.376 96.1901 13.196 95.9621 13.064C95.7381 12.932 95.4541 12.866 95.1101 12.866C94.8421 12.866 94.5981 12.912 94.3781 13.004C94.1621 13.092 93.9761 13.228 93.8201 13.412C93.6641 13.596 93.5421 13.828 93.4541 14.108C93.3701 14.384 93.3281 14.71 93.3281 15.086L92.6261 14.87C92.6261 14.242 92.7381 13.704 92.9621 13.256C93.1901 12.804 93.5081 12.458 93.9161 12.218C94.3281 11.974 94.8121 11.852 95.3681 11.852C95.7881 11.852 96.1461 11.918 96.4421 12.05C96.7381 12.182 96.9841 12.358 97.1801 12.578C97.3761 12.794 97.5301 13.038 97.6421 13.31C97.7541 13.578 97.8321 13.852 97.8761 14.132C97.9241 14.408 97.9481 14.67 97.9481 14.918V18.5H96.8681ZM92.2481 18.5V12.02H93.2081V13.754H93.3281V18.5H92.2481Z" fill="white"/>
</svg>
