<svg width="114" height="28" viewBox="0 0 114 28" fill="none" xmlns="http://www.w3.org/2000/svg">
<rect x="0.5" y="0.5" width="113" height="27" rx="13.5" fill="#141414"/>
<rect x="0.5" y="0.5" width="113" height="27" rx="13.5" stroke="#262626"/>
<path d="M19.9997 9.33325V18.6666M15.333 13.9999H24.6663" stroke="white" stroke-width="1.67" stroke-linecap="round" stroke-linejoin="round"/>
<path d="M32.24 18.5L35.132 9.86H36.62L39.512 18.5H38.402L35.696 10.484H36.032L33.35 18.5H32.24ZM33.632 16.478V15.476H38.12V16.478H33.632ZM43.1301 18.68C42.5261 18.68 42.0081 18.53 41.5761 18.23C41.1441 17.926 40.8101 17.516 40.5741 17C40.3421 16.484 40.2261 15.902 40.2261 15.254C40.2261 14.606 40.3421 14.024 40.5741 13.508C40.8101 12.992 41.1441 12.586 41.5761 12.29C42.0081 11.99 42.5241 11.84 43.1241 11.84C43.7361 11.84 44.2501 11.988 44.6661 12.284C45.0821 12.58 45.3961 12.986 45.6081 13.502C45.8241 14.018 45.9321 14.602 45.9321 15.254C45.9321 15.898 45.8241 16.48 45.6081 17C45.3961 17.516 45.0821 17.926 44.6661 18.23C44.2501 18.53 43.7381 18.68 43.1301 18.68ZM43.2621 17.702C43.6981 17.702 44.0561 17.598 44.3361 17.39C44.6161 17.178 44.8221 16.888 44.9541 16.52C45.0901 16.148 45.1581 15.726 45.1581 15.254C45.1581 14.774 45.0901 14.352 44.9541 13.988C44.8221 13.62 44.6181 13.334 44.3421 13.13C44.0661 12.922 43.7161 12.818 43.2921 12.818C42.8521 12.818 42.4881 12.926 42.2001 13.142C41.9161 13.358 41.7041 13.65 41.5641 14.018C41.4281 14.386 41.3601 14.798 41.3601 15.254C41.3601 15.714 41.4301 16.13 41.5701 16.502C41.7101 16.87 41.9201 17.162 42.2001 17.378C42.4841 17.594 42.8381 17.702 43.2621 17.702ZM45.1581 18.5V13.73H45.0381V9.86H46.1121V18.5H45.1581ZM50.3371 18.68C49.7331 18.68 49.2151 18.53 48.7831 18.23C48.3511 17.926 48.0171 17.516 47.7811 17C47.5491 16.484 47.4331 15.902 47.4331 15.254C47.4331 14.606 47.5491 14.024 47.7811 13.508C48.0171 12.992 48.3511 12.586 48.7831 12.29C49.2151 11.99 49.7311 11.84 50.3311 11.84C50.9431 11.84 51.4571 11.988 51.8731 12.284C52.2891 12.58 52.6031 12.986 52.8151 13.502C53.0311 14.018 53.1391 14.602 53.1391 15.254C53.1391 15.898 53.0311 16.48 52.8151 17C52.6031 17.516 52.2891 17.926 51.8731 18.23C51.4571 18.53 50.9451 18.68 50.3371 18.68ZM50.4691 17.702C50.9051 17.702 51.2631 17.598 51.5431 17.39C51.8231 17.178 52.0291 16.888 52.1611 16.52C52.2971 16.148 52.3651 15.726 52.3651 15.254C52.3651 14.774 52.2971 14.352 52.1611 13.988C52.0291 13.62 51.8251 13.334 51.5491 13.13C51.2731 12.922 50.9231 12.818 50.4991 12.818C50.0591 12.818 49.6951 12.926 49.4071 13.142C49.1231 13.358 48.9111 13.65 48.7711 14.018C48.6351 14.386 48.5671 14.798 48.5671 15.254C48.5671 15.714 48.6371 16.13 48.7771 16.502C48.9171 16.87 49.1271 17.162 49.4071 17.378C49.6911 17.594 50.0451 17.702 50.4691 17.702ZM52.3651 18.5V13.73H52.2451V9.86H53.3191V18.5H52.3651ZM57.4025 18.5V9.86H62.8625V10.874H58.4705V13.58H62.1425V14.594H58.4705V17.486H62.8625V18.5H57.4025ZM67.2808 18.68C66.6728 18.68 66.1608 18.53 65.7448 18.23C65.3288 17.926 65.0128 17.516 64.7968 17C64.5848 16.48 64.4788 15.898 64.4788 15.254C64.4788 14.602 64.5848 14.018 64.7968 13.502C65.0128 12.986 65.3288 12.58 65.7448 12.284C66.1648 11.988 66.6788 11.84 67.2868 11.84C67.8868 11.84 68.4028 11.99 68.8348 12.29C69.2708 12.586 69.6048 12.992 69.8368 13.508C70.0688 14.024 70.1848 14.606 70.1848 15.254C70.1848 15.902 70.0688 16.484 69.8368 17C69.6048 17.516 69.2708 17.926 68.8348 18.23C68.4028 18.53 67.8848 18.68 67.2808 18.68ZM64.2988 21.38V12.02H65.2528V16.79H65.3728V21.38H64.2988ZM67.1488 17.702C67.5768 17.702 67.9308 17.594 68.2108 17.378C68.4908 17.162 68.7008 16.87 68.8408 16.502C68.9808 16.13 69.0508 15.714 69.0508 15.254C69.0508 14.798 68.9808 14.386 68.8408 14.018C68.7048 13.65 68.4928 13.358 68.2048 13.142C67.9208 12.926 67.5588 12.818 67.1188 12.818C66.6988 12.818 66.3508 12.922 66.0748 13.13C65.7988 13.334 65.5928 13.62 65.4568 13.988C65.3208 14.352 65.2528 14.774 65.2528 15.254C65.2528 15.726 65.3188 16.148 65.4508 16.52C65.5868 16.888 65.7948 17.178 66.0748 17.39C66.3548 17.598 66.7128 17.702 67.1488 17.702ZM71.6202 10.874V9.77H72.6882V10.874H71.6202ZM71.6202 18.5V12.02H72.6882V18.5H71.6202ZM76.9364 18.674C76.1644 18.674 75.5304 18.506 75.0344 18.17C74.5424 17.83 74.2404 17.356 74.1284 16.748L75.2204 16.574C75.3084 16.926 75.5104 17.206 75.8264 17.414C76.1424 17.618 76.5344 17.72 77.0024 17.72C77.4464 17.72 77.7944 17.628 78.0464 17.444C78.2984 17.26 78.4244 17.01 78.4244 16.694C78.4244 16.51 78.3824 16.362 78.2984 16.25C78.2144 16.134 78.0404 16.026 77.7764 15.926C77.5164 15.826 77.1224 15.706 76.5944 15.566C76.0224 15.414 75.5724 15.256 75.2444 15.092C74.9164 14.928 74.6824 14.738 74.5424 14.522C74.4024 14.306 74.3324 14.044 74.3324 13.736C74.3324 13.356 74.4364 13.024 74.6444 12.74C74.8524 12.452 75.1424 12.23 75.5144 12.074C75.8904 11.918 76.3264 11.84 76.8224 11.84C77.3144 11.84 77.7544 11.918 78.1424 12.074C78.5304 12.23 78.8424 12.452 79.0784 12.74C79.3184 13.024 79.4604 13.356 79.5044 13.736L78.4124 13.934C78.3604 13.586 78.1924 13.312 77.9084 13.112C77.6284 12.912 77.2664 12.806 76.8224 12.794C76.4024 12.778 76.0604 12.852 75.7964 13.016C75.5364 13.18 75.4064 13.402 75.4064 13.682C75.4064 13.838 75.4544 13.972 75.5504 14.084C75.6504 14.196 75.8324 14.302 76.0964 14.402C76.3644 14.502 76.7524 14.616 77.2604 14.744C77.8324 14.888 78.2824 15.046 78.6104 15.218C78.9424 15.386 79.1784 15.586 79.3184 15.818C79.4584 16.046 79.5284 16.328 79.5284 16.664C79.5284 17.288 79.2984 17.78 78.8384 18.14C78.3784 18.496 77.7444 18.674 76.9364 18.674ZM83.6117 18.68C82.9677 18.68 82.4117 18.534 81.9437 18.242C81.4797 17.95 81.1217 17.546 80.8697 17.03C80.6177 16.514 80.4917 15.922 80.4917 15.254C80.4917 14.574 80.6197 13.978 80.8757 13.466C81.1317 12.954 81.4937 12.556 81.9617 12.272C82.4297 11.984 82.9797 11.84 83.6117 11.84C84.2597 11.84 84.8177 11.986 85.2857 12.278C85.7537 12.566 86.1117 12.968 86.3597 13.484C86.6117 13.996 86.7377 14.586 86.7377 15.254C86.7377 15.93 86.6117 16.526 86.3597 17.042C86.1077 17.554 85.7477 17.956 85.2797 18.248C84.8117 18.536 84.2557 18.68 83.6117 18.68ZM83.6117 17.666C84.2837 17.666 84.7837 17.442 85.1117 16.994C85.4397 16.546 85.6037 15.966 85.6037 15.254C85.6037 14.522 85.4377 13.94 85.1057 13.508C84.7737 13.072 84.2757 12.854 83.6117 12.854C83.1597 12.854 82.7877 12.956 82.4957 13.16C82.2037 13.364 81.9857 13.646 81.8417 14.006C81.6977 14.366 81.6257 14.782 81.6257 15.254C81.6257 15.982 81.7937 16.566 82.1297 17.006C82.4657 17.446 82.9597 17.666 83.6117 17.666ZM90.6028 18.68C89.9988 18.68 89.4808 18.53 89.0488 18.23C88.6168 17.926 88.2828 17.516 88.0468 17C87.8148 16.484 87.6988 15.902 87.6988 15.254C87.6988 14.606 87.8148 14.024 88.0468 13.508C88.2828 12.992 88.6168 12.586 89.0488 12.29C89.4808 11.99 89.9968 11.84 90.5968 11.84C91.2088 11.84 91.7228 11.988 92.1388 12.284C92.5548 12.58 92.8688 12.986 93.0808 13.502C93.2968 14.018 93.4048 14.602 93.4048 15.254C93.4048 15.898 93.2968 16.48 93.0808 17C92.8688 17.516 92.5548 17.926 92.1388 18.23C91.7228 18.53 91.2108 18.68 90.6028 18.68ZM90.7348 17.702C91.1708 17.702 91.5288 17.598 91.8088 17.39C92.0888 17.178 92.2948 16.888 92.4268 16.52C92.5628 16.148 92.6308 15.726 92.6308 15.254C92.6308 14.774 92.5628 14.352 92.4268 13.988C92.2948 13.62 92.0908 13.334 91.8148 13.13C91.5388 12.922 91.1888 12.818 90.7648 12.818C90.3248 12.818 89.9608 12.926 89.6728 13.142C89.3888 13.358 89.1768 13.65 89.0368 14.018C88.9008 14.386 88.8328 14.798 88.8328 15.254C88.8328 15.714 88.9028 16.13 89.0428 16.502C89.1828 16.87 89.3928 17.162 89.6728 17.378C89.9568 17.594 90.3108 17.702 90.7348 17.702ZM92.6308 18.5V13.73H92.5108V9.86H93.5848V18.5H92.6308ZM98.0738 18.68C97.4378 18.68 96.8818 18.54 96.4058 18.26C95.9338 17.976 95.5658 17.582 95.3018 17.078C95.0378 16.57 94.9058 15.978 94.9058 15.302C94.9058 14.594 95.0358 13.982 95.2958 13.466C95.5558 12.946 95.9178 12.546 96.3818 12.266C96.8498 11.982 97.3978 11.84 98.0258 11.84C98.6778 11.84 99.2318 11.99 99.6878 12.29C100.148 12.59 100.492 13.018 100.72 13.574C100.952 14.13 101.052 14.792 101.02 15.56H99.9398V15.176C99.9278 14.38 99.7658 13.786 99.4538 13.394C99.1418 12.998 98.6778 12.8 98.0618 12.8C97.4018 12.8 96.8998 13.012 96.5558 13.436C96.2118 13.86 96.0398 14.468 96.0398 15.26C96.0398 16.024 96.2118 16.616 96.5558 17.036C96.8998 17.456 97.3898 17.666 98.0258 17.666C98.4538 17.666 98.8258 17.568 99.1418 17.372C99.4578 17.176 99.7058 16.894 99.8858 16.526L100.912 16.88C100.66 17.452 100.28 17.896 99.7718 18.212C99.2678 18.524 98.7018 18.68 98.0738 18.68ZM95.6798 15.56V14.702H100.468V15.56H95.6798Z" fill="white"/>
</svg>
