<svg width="19" height="21" viewBox="0 0 19 21" fill="none" xmlns="http://www.w3.org/2000/svg">
<path d="M0.940449 18.784C0.570898 19.1944 0.604036 19.8267 1.01446 20.1963C1.42489 20.5658 2.05719 20.5327 2.42674 20.1223L0.940449 18.784ZM18.5263 1.8042C18.4974 1.25268 18.0268 0.829007 17.4753 0.857911L8.48763 1.32894C7.9361 1.35784 7.51243 1.82837 7.54134 2.3799C7.57024 2.93143 8.04077 3.3551 8.5923 3.32619L16.5813 2.90751L17 10.8965C17.0289 11.4481 17.4995 11.8717 18.051 11.8428C18.6025 11.8139 19.0262 11.3434 18.9973 10.7919L18.5263 1.8042ZM2.42674 20.1223L18.2708 2.52567L16.7845 1.18741L0.940449 18.784L2.42674 20.1223Z" fill="#ADB5BD"/>
</svg>
