<svg width="90" height="44" viewBox="0 0 90 44" fill="none" xmlns="http://www.w3.org/2000/svg">
<path d="M19.5753 20.1293H18.0241C17.9645 19.7978 17.8535 19.5062 17.6911 19.2543C17.5286 19.0024 17.3298 18.7886 17.0945 18.6129C16.8591 18.4373 16.5956 18.3047 16.304 18.2152C16.0156 18.1257 15.709 18.081 15.3842 18.081C14.7976 18.081 14.2723 18.2285 13.8082 18.5234C13.3475 18.8184 12.983 19.2509 12.7145 19.821C12.4493 20.3911 12.3168 21.0871 12.3168 21.9091C12.3168 22.7377 12.4493 23.437 12.7145 24.0071C12.983 24.5772 13.3492 25.008 13.8132 25.2997C14.2772 25.5914 14.7992 25.7372 15.3793 25.7372C15.7008 25.7372 16.0057 25.6941 16.294 25.608C16.5857 25.5185 16.8492 25.3875 17.0845 25.2152C17.3198 25.0429 17.5187 24.8324 17.6811 24.5838C17.8468 24.3319 17.9612 24.0436 18.0241 23.7188L19.5753 23.7237C19.4924 24.2242 19.3317 24.6849 19.093 25.1058C18.8577 25.5234 18.5545 25.8847 18.1832 26.1896C17.8153 26.4912 17.3944 26.7249 16.9205 26.8906C16.4465 27.0563 15.9295 27.1392 15.3693 27.1392C14.4877 27.1392 13.7022 26.9304 13.0128 26.5128C12.3234 26.0919 11.7798 25.4903 11.3821 24.7081C10.9877 23.9259 10.7905 22.9929 10.7905 21.9091C10.7905 20.822 10.9893 19.889 11.3871 19.1101C11.7848 18.3279 12.3284 17.728 13.0178 17.3104C13.7071 16.8894 14.491 16.679 15.3693 16.679C15.9096 16.679 16.4134 16.7569 16.8807 16.9126C17.3513 17.0651 17.7739 17.2905 18.1484 17.5888C18.523 17.8838 18.8329 18.245 19.0781 18.6726C19.3234 19.0968 19.4891 19.5824 19.5753 20.1293ZM22.7807 16.8182V27H21.2942V16.8182H22.7807ZM27.9972 27.1541C27.2813 27.1541 26.6565 26.9901 26.1229 26.6619C25.5893 26.3338 25.175 25.8748 24.88 25.2848C24.585 24.6948 24.4375 24.0054 24.4375 23.2166C24.4375 22.4245 24.585 21.7318 24.88 21.1385C25.175 20.5452 25.5893 20.0845 26.1229 19.7564C26.6565 19.4283 27.2813 19.2642 27.9972 19.2642C28.7131 19.2642 29.3378 19.4283 29.8714 19.7564C30.4051 20.0845 30.8194 20.5452 31.1143 21.1385C31.4093 21.7318 31.5568 22.4245 31.5568 23.2166C31.5568 24.0054 31.4093 24.6948 31.1143 25.2848C30.8194 25.8748 30.4051 26.3338 29.8714 26.6619C29.3378 26.9901 28.7131 27.1541 27.9972 27.1541ZM28.0021 25.9062C28.4661 25.9062 28.8506 25.7836 29.1555 25.5384C29.4605 25.2931 29.6858 24.9666 29.8317 24.5589C29.9808 24.1513 30.0554 23.7022 30.0554 23.2116C30.0554 22.7244 29.9808 22.277 29.8317 21.8693C29.6858 21.4583 29.4605 21.1286 29.1555 20.88C28.8506 20.6314 28.4661 20.5071 28.0021 20.5071C27.5348 20.5071 27.147 20.6314 26.8388 20.88C26.5339 21.1286 26.3068 21.4583 26.1577 21.8693C26.0118 22.277 25.9389 22.7244 25.9389 23.2116C25.9389 23.7022 26.0118 24.1513 26.1577 24.5589C26.3068 24.9666 26.5339 25.2931 26.8388 25.5384C27.147 25.7836 27.5348 25.9062 28.0021 25.9062ZM38.9384 21.228L37.5911 21.4666C37.5347 21.2943 37.4453 21.1302 37.3226 20.9744C37.2033 20.8187 37.0409 20.6911 36.8354 20.5916C36.6299 20.4922 36.373 20.4425 36.0648 20.4425C35.6439 20.4425 35.2926 20.5369 35.0108 20.7259C34.7291 20.9115 34.5882 21.1518 34.5882 21.4467C34.5882 21.7019 34.6827 21.9074 34.8716 22.0632C35.0605 22.219 35.3655 22.3466 35.7864 22.446L36.9995 22.7244C37.7021 22.8868 38.2258 23.1371 38.5705 23.4751C38.9152 23.8132 39.0875 24.2524 39.0875 24.7926C39.0875 25.25 38.955 25.6577 38.6898 26.0156C38.428 26.3703 38.0617 26.6487 37.5911 26.8509C37.1238 27.053 36.5819 27.1541 35.9654 27.1541C35.1103 27.1541 34.4126 26.9718 33.8723 26.6072C33.3321 26.2393 33.0007 25.7173 32.878 25.0412L34.3148 24.8224C34.4043 25.197 34.5882 25.4804 34.8667 25.6726C35.1451 25.8615 35.508 25.956 35.9554 25.956C36.4426 25.956 36.8321 25.8549 37.1238 25.6527C37.4154 25.4472 37.5613 25.197 37.5613 24.902C37.5613 24.6634 37.4718 24.4628 37.2928 24.3004C37.1171 24.138 36.847 24.0154 36.4824 23.9325L35.1898 23.6491C34.4772 23.4867 33.9502 23.2282 33.6088 22.8736C33.2708 22.5189 33.1017 22.0698 33.1017 21.5263C33.1017 21.0755 33.2277 20.6811 33.4796 20.343C33.7315 20.005 34.0795 19.7415 34.5236 19.5526C34.9677 19.3603 35.4765 19.2642 36.0499 19.2642C36.8752 19.2642 37.5248 19.4432 37.9988 19.8011C38.4727 20.1558 38.7859 20.6314 38.9384 21.228ZM44.0131 27.1541C43.2608 27.1541 42.6128 26.9934 42.0692 26.6719C41.529 26.3471 41.1114 25.8913 40.8164 25.3047C40.5247 24.7147 40.3789 24.0237 40.3789 23.2315C40.3789 22.4493 40.5247 21.7599 40.8164 21.1634C41.1114 20.5668 41.5224 20.1011 42.0494 19.7663C42.5797 19.4316 43.1995 19.2642 43.9087 19.2642C44.3396 19.2642 44.7572 19.3355 45.1616 19.478C45.5659 19.6205 45.9289 19.8442 46.2504 20.1491C46.5719 20.4541 46.8254 20.8501 47.011 21.3374C47.1966 21.8213 47.2894 22.4096 47.2894 23.1023V23.6293H41.2191V22.5156H45.8327C45.8327 22.1245 45.7532 21.7782 45.5941 21.4766C45.435 21.1716 45.2113 20.9313 44.9229 20.7557C44.6379 20.58 44.3031 20.4922 43.9187 20.4922C43.5011 20.4922 43.1365 20.5949 42.8249 20.8004C42.5167 21.0026 42.2781 21.2678 42.109 21.5959C41.9433 21.9207 41.8604 22.2737 41.8604 22.6548V23.5249C41.8604 24.0353 41.9499 24.4695 42.1289 24.8274C42.3112 25.1854 42.5647 25.4588 42.8896 25.6477C43.2144 25.8333 43.5939 25.9261 44.0281 25.9261C44.3098 25.9261 44.5666 25.8864 44.7987 25.8068C45.0307 25.724 45.2312 25.6013 45.4002 25.4389C45.5692 25.2765 45.6985 25.076 45.788 24.8374L47.195 25.0909C47.0823 25.5052 46.8801 25.8681 46.5884 26.1797C46.3001 26.4879 45.9371 26.7282 45.4996 26.9006C45.0655 27.0696 44.57 27.1541 44.0131 27.1541Z" fill="#414651"/>
<path d="M74 16L62 28M62 16L74 28" stroke="#717680" stroke-width="2" stroke-linecap="round" stroke-linejoin="round"/>
</svg>
