<svg width="121" height="28" viewBox="0 0 121 28" fill="none" xmlns="http://www.w3.org/2000/svg">
<rect x="0.5" y="0.5" width="119.206" height="27" rx="13.5" fill="#141414"/>
<rect x="0.5" y="0.5" width="119.206" height="27" rx="13.5" stroke="#262626"/>
<path d="M22.206 8.16796H19.6545L18.9255 7.43896H15.2805L14.5515 8.16796H12V9.62596H22.206M12.729 19.103C12.729 19.4897 12.8826 19.8605 13.156 20.1339C13.4295 20.4074 13.8003 20.561 14.187 20.561H20.019C20.4057 20.561 20.7765 20.4074 21.05 20.1339C21.3234 19.8605 21.477 19.4897 21.477 19.103V10.355H12.729V19.103Z" fill="white"/>
<path d="M27.0461 18.5V9.86H29.7101C29.7981 9.86 29.9521 9.862 30.1721 9.866C30.3921 9.87 30.6021 9.886 30.8021 9.914C31.4701 10.002 32.0281 10.246 32.4761 10.646C32.9281 11.042 33.2681 11.546 33.4961 12.158C33.7241 12.77 33.8381 13.444 33.8381 14.18C33.8381 14.916 33.7241 15.59 33.4961 16.202C33.2681 16.814 32.9281 17.32 32.4761 17.72C32.0281 18.116 31.4701 18.358 30.8021 18.446C30.6021 18.47 30.3901 18.486 30.1661 18.494C29.9461 18.498 29.7941 18.5 29.7101 18.5H27.0461ZM28.1441 17.48H29.7101C29.8621 17.48 30.0321 17.476 30.2201 17.468C30.4081 17.456 30.5721 17.438 30.7121 17.414C31.1841 17.326 31.5661 17.128 31.8581 16.82C32.1501 16.512 32.3641 16.128 32.5001 15.668C32.6361 15.208 32.7041 14.712 32.7041 14.18C32.7041 13.636 32.6341 13.134 32.4941 12.674C32.3581 12.214 32.1441 11.832 31.8521 11.528C31.5601 11.224 31.1801 11.03 30.7121 10.946C30.5721 10.918 30.4061 10.9 30.2141 10.892C30.0221 10.884 29.8541 10.88 29.7101 10.88H28.1441V17.48ZM38.022 18.68C37.386 18.68 36.83 18.54 36.354 18.26C35.882 17.976 35.514 17.582 35.25 17.078C34.986 16.57 34.854 15.978 34.854 15.302C34.854 14.594 34.984 13.982 35.244 13.466C35.504 12.946 35.866 12.546 36.33 12.266C36.798 11.982 37.346 11.84 37.974 11.84C38.626 11.84 39.18 11.99 39.636 12.29C40.096 12.59 40.44 13.018 40.668 13.574C40.9 14.13 41 14.792 40.968 15.56H39.888V15.176C39.876 14.38 39.714 13.786 39.402 13.394C39.09 12.998 38.626 12.8 38.01 12.8C37.35 12.8 36.848 13.012 36.504 13.436C36.16 13.86 35.988 14.468 35.988 15.26C35.988 16.024 36.16 16.616 36.504 17.036C36.848 17.456 37.338 17.666 37.974 17.666C38.402 17.666 38.774 17.568 39.09 17.372C39.406 17.176 39.654 16.894 39.834 16.526L40.86 16.88C40.608 17.452 40.228 17.896 39.72 18.212C39.216 18.524 38.65 18.68 38.022 18.68ZM35.628 15.56V14.702H40.416V15.56H35.628ZM42.4239 18.5V9.68H43.4919V18.5H42.4239ZM48.1001 18.68C47.4641 18.68 46.9081 18.54 46.4321 18.26C45.9601 17.976 45.5921 17.582 45.3281 17.078C45.0641 16.57 44.9321 15.978 44.9321 15.302C44.9321 14.594 45.0621 13.982 45.3221 13.466C45.5821 12.946 45.9441 12.546 46.4081 12.266C46.8761 11.982 47.4241 11.84 48.0521 11.84C48.7041 11.84 49.2581 11.99 49.7141 12.29C50.1741 12.59 50.5181 13.018 50.7461 13.574C50.9781 14.13 51.0781 14.792 51.0461 15.56H49.9661V15.176C49.9541 14.38 49.7921 13.786 49.4801 13.394C49.1681 12.998 48.7041 12.8 48.0881 12.8C47.4281 12.8 46.9261 13.012 46.5821 13.436C46.2381 13.86 46.0661 14.468 46.0661 15.26C46.0661 16.024 46.2381 16.616 46.5821 17.036C46.9261 17.456 47.4161 17.666 48.0521 17.666C48.4801 17.666 48.8521 17.568 49.1681 17.372C49.4841 17.176 49.7321 16.894 49.9121 16.526L50.9381 16.88C50.6861 17.452 50.3061 17.896 49.7981 18.212C49.2941 18.524 48.7281 18.68 48.1001 18.68ZM45.7061 15.56V14.702H50.4941V15.56H45.7061ZM56 18.5C55.616 18.576 55.236 18.606 54.86 18.59C54.488 18.578 54.156 18.504 53.864 18.368C53.572 18.228 53.35 18.012 53.198 17.72C53.07 17.464 53 17.206 52.988 16.946C52.98 16.682 52.976 16.384 52.976 16.052V10.22H54.044V16.004C54.044 16.268 54.046 16.494 54.05 16.682C54.058 16.87 54.1 17.032 54.176 17.168C54.32 17.424 54.548 17.574 54.86 17.618C55.176 17.662 55.556 17.65 56 17.582V18.5ZM51.662 12.902V12.02H56V12.902H51.662ZM59.8541 18.68C59.2181 18.68 58.6621 18.54 58.1861 18.26C57.7141 17.976 57.3461 17.582 57.0821 17.078C56.8181 16.57 56.6861 15.978 56.6861 15.302C56.6861 14.594 56.8161 13.982 57.0761 13.466C57.3361 12.946 57.6981 12.546 58.1621 12.266C58.6301 11.982 59.1781 11.84 59.8061 11.84C60.4581 11.84 61.0121 11.99 61.4681 12.29C61.9281 12.59 62.2721 13.018 62.5001 13.574C62.7321 14.13 62.8321 14.792 62.8001 15.56H61.7201V15.176C61.7081 14.38 61.5461 13.786 61.2341 13.394C60.9221 12.998 60.4581 12.8 59.8421 12.8C59.1821 12.8 58.6801 13.012 58.3361 13.436C57.9921 13.86 57.8201 14.468 57.8201 15.26C57.8201 16.024 57.9921 16.616 58.3361 17.036C58.6801 17.456 59.1701 17.666 59.8061 17.666C60.2341 17.666 60.6061 17.568 60.9221 17.372C61.2381 17.176 61.4861 16.894 61.6661 16.526L62.6921 16.88C62.4401 17.452 62.0601 17.896 61.5521 18.212C61.0481 18.524 60.4821 18.68 59.8541 18.68ZM57.4601 15.56V14.702H62.2481V15.56H57.4601ZM69.6042 18.68C68.9922 18.68 68.4402 18.576 67.9482 18.368C67.4602 18.16 67.0562 17.864 66.7362 17.48C66.4202 17.092 66.2142 16.634 66.1182 16.106L67.2222 15.932C67.3622 16.476 67.6522 16.902 68.0922 17.21C68.5362 17.514 69.0582 17.666 69.6582 17.666C70.0462 17.666 70.3962 17.606 70.7082 17.486C71.0242 17.362 71.2742 17.186 71.4582 16.958C71.6422 16.73 71.7342 16.46 71.7342 16.148C71.7342 15.956 71.7002 15.792 71.6322 15.656C71.5682 15.516 71.4782 15.398 71.3622 15.302C71.2502 15.202 71.1222 15.118 70.9782 15.05C70.8342 14.982 70.6842 14.926 70.5282 14.882L68.3262 14.228C68.0862 14.156 67.8542 14.066 67.6302 13.958C67.4062 13.846 67.2062 13.708 67.0302 13.544C66.8542 13.376 66.7142 13.176 66.6102 12.944C66.5062 12.708 66.4542 12.43 66.4542 12.11C66.4542 11.598 66.5862 11.162 66.8502 10.802C67.1182 10.438 67.4802 10.16 67.9362 9.968C68.3922 9.776 68.9062 9.682 69.4782 9.686C70.0582 9.69 70.5762 9.794 71.0322 9.998C71.4922 10.198 71.8722 10.486 72.1722 10.862C72.4762 11.238 72.6802 11.688 72.7842 12.212L71.6502 12.41C71.5902 12.058 71.4562 11.756 71.2482 11.504C71.0442 11.248 70.7882 11.052 70.4802 10.916C70.1722 10.776 69.8342 10.704 69.4662 10.7C69.1142 10.696 68.7962 10.752 68.5122 10.868C68.2282 10.984 68.0022 11.146 67.8342 11.354C67.6662 11.558 67.5822 11.794 67.5822 12.062C67.5822 12.326 67.6582 12.54 67.8102 12.704C67.9622 12.864 68.1482 12.992 68.3682 13.088C68.5922 13.18 68.8102 13.256 69.0222 13.316L70.6662 13.79C70.8542 13.842 71.0702 13.914 71.3142 14.006C71.5622 14.098 71.8022 14.228 72.0342 14.396C72.2662 14.56 72.4582 14.78 72.6102 15.056C72.7622 15.328 72.8382 15.672 72.8382 16.088C72.8382 16.504 72.7542 16.874 72.5862 17.198C72.4222 17.522 72.1922 17.794 71.8962 18.014C71.6002 18.23 71.2562 18.394 70.8642 18.506C70.4722 18.622 70.0522 18.68 69.6042 18.68ZM76.9048 18.68C76.2688 18.68 75.7128 18.54 75.2368 18.26C74.7648 17.976 74.3968 17.582 74.1328 17.078C73.8688 16.57 73.7368 15.978 73.7368 15.302C73.7368 14.594 73.8668 13.982 74.1268 13.466C74.3868 12.946 74.7488 12.546 75.2128 12.266C75.6808 11.982 76.2288 11.84 76.8568 11.84C77.5088 11.84 78.0628 11.99 78.5188 12.29C78.9788 12.59 79.3228 13.018 79.5508 13.574C79.7828 14.13 79.8828 14.792 79.8508 15.56H78.7708V15.176C78.7588 14.38 78.5968 13.786 78.2848 13.394C77.9728 12.998 77.5088 12.8 76.8928 12.8C76.2328 12.8 75.7308 13.012 75.3868 13.436C75.0428 13.86 74.8708 14.468 74.8708 15.26C74.8708 16.024 75.0428 16.616 75.3868 17.036C75.7308 17.456 76.2208 17.666 76.8568 17.666C77.2848 17.666 77.6568 17.568 77.9728 17.372C78.2888 17.176 78.5368 16.894 78.7168 16.526L79.7428 16.88C79.4908 17.452 79.1108 17.896 78.6028 18.212C78.0988 18.524 77.5328 18.68 76.9048 18.68ZM74.5108 15.56V14.702H79.2988V15.56H74.5108ZM82.9115 18.68C82.4275 18.68 82.0215 18.592 81.6935 18.416C81.3695 18.236 81.1235 18 80.9555 17.708C80.7915 17.416 80.7095 17.096 80.7095 16.748C80.7095 16.408 80.7735 16.114 80.9015 15.866C81.0335 15.614 81.2175 15.406 81.4535 15.242C81.6895 15.074 81.9715 14.942 82.2995 14.846C82.6075 14.762 82.9515 14.69 83.3315 14.63C83.7155 14.566 84.1035 14.508 84.4955 14.456C84.8875 14.404 85.2535 14.354 85.5935 14.306L85.2095 14.528C85.2215 13.952 85.1055 13.526 84.8615 13.25C84.6215 12.974 84.2055 12.836 83.6135 12.836C83.2215 12.836 82.8775 12.926 82.5815 13.106C82.2895 13.282 82.0835 13.57 81.9635 13.97L80.9495 13.664C81.1055 13.096 81.4075 12.65 81.8555 12.326C82.3035 12.002 82.8935 11.84 83.6255 11.84C84.2135 11.84 84.7175 11.946 85.1375 12.158C85.5615 12.366 85.8655 12.682 86.0495 13.106C86.1415 13.306 86.1995 13.524 86.2235 13.76C86.2475 13.992 86.2595 14.236 86.2595 14.492V18.5H85.3115V16.946L85.5335 17.09C85.2895 17.614 84.9475 18.01 84.5075 18.278C84.0715 18.546 83.5395 18.68 82.9115 18.68ZM83.0735 17.786C83.4575 17.786 83.7895 17.718 84.0695 17.582C84.3535 17.442 84.5815 17.26 84.7535 17.036C84.9255 16.808 85.0375 16.56 85.0895 16.292C85.1495 16.092 85.1815 15.87 85.1855 15.626C85.1935 15.378 85.1975 15.188 85.1975 15.056L85.5695 15.218C85.2215 15.266 84.8795 15.312 84.5435 15.356C84.2075 15.4 83.8895 15.448 83.5895 15.5C83.2895 15.548 83.0195 15.606 82.7795 15.674C82.6035 15.73 82.4375 15.802 82.2815 15.89C82.1295 15.978 82.0055 16.092 81.9095 16.232C81.8175 16.368 81.7715 16.538 81.7715 16.742C81.7715 16.918 81.8155 17.086 81.9035 17.246C81.9955 17.406 82.1355 17.536 82.3235 17.636C82.5155 17.736 82.7655 17.786 83.0735 17.786ZM90.2675 18.674C89.4955 18.674 88.8615 18.506 88.3655 18.17C87.8735 17.83 87.5715 17.356 87.4595 16.748L88.5515 16.574C88.6395 16.926 88.8415 17.206 89.1575 17.414C89.4735 17.618 89.8655 17.72 90.3335 17.72C90.7775 17.72 91.1255 17.628 91.3775 17.444C91.6295 17.26 91.7555 17.01 91.7555 16.694C91.7555 16.51 91.7135 16.362 91.6295 16.25C91.5455 16.134 91.3715 16.026 91.1075 15.926C90.8475 15.826 90.4535 15.706 89.9255 15.566C89.3535 15.414 88.9035 15.256 88.5755 15.092C88.2475 14.928 88.0135 14.738 87.8735 14.522C87.7335 14.306 87.6635 14.044 87.6635 13.736C87.6635 13.356 87.7675 13.024 87.9755 12.74C88.1835 12.452 88.4735 12.23 88.8455 12.074C89.2215 11.918 89.6575 11.84 90.1535 11.84C90.6455 11.84 91.0855 11.918 91.4735 12.074C91.8615 12.23 92.1735 12.452 92.4095 12.74C92.6495 13.024 92.7915 13.356 92.8355 13.736L91.7435 13.934C91.6915 13.586 91.5235 13.312 91.2395 13.112C90.9595 12.912 90.5975 12.806 90.1535 12.794C89.7335 12.778 89.3915 12.852 89.1275 13.016C88.8675 13.18 88.7375 13.402 88.7375 13.682C88.7375 13.838 88.7855 13.972 88.8815 14.084C88.9815 14.196 89.1635 14.302 89.4275 14.402C89.6955 14.502 90.0835 14.616 90.5915 14.744C91.1635 14.888 91.6135 15.046 91.9415 15.218C92.2735 15.386 92.5095 15.586 92.6495 15.818C92.7895 16.046 92.8595 16.328 92.8595 16.664C92.8595 17.288 92.6295 17.78 92.1695 18.14C91.7095 18.496 91.0755 18.674 90.2675 18.674ZM96.9428 18.68C96.2988 18.68 95.7428 18.534 95.2748 18.242C94.8108 17.95 94.4528 17.546 94.2008 17.03C93.9488 16.514 93.8228 15.922 93.8228 15.254C93.8228 14.574 93.9508 13.978 94.2068 13.466C94.4628 12.954 94.8248 12.556 95.2928 12.272C95.7608 11.984 96.3108 11.84 96.9428 11.84C97.5908 11.84 98.1488 11.986 98.6168 12.278C99.0848 12.566 99.4428 12.968 99.6908 13.484C99.9428 13.996 100.069 14.586 100.069 15.254C100.069 15.93 99.9428 16.526 99.6908 17.042C99.4388 17.554 99.0788 17.956 98.6108 18.248C98.1428 18.536 97.5868 18.68 96.9428 18.68ZM96.9428 17.666C97.6148 17.666 98.1148 17.442 98.4428 16.994C98.7708 16.546 98.9348 15.966 98.9348 15.254C98.9348 14.522 98.7688 13.94 98.4368 13.508C98.1048 13.072 97.6068 12.854 96.9428 12.854C96.4908 12.854 96.1188 12.956 95.8268 13.16C95.5348 13.364 95.3168 13.646 95.1728 14.006C95.0288 14.366 94.9568 14.782 94.9568 15.254C94.9568 15.982 95.1248 16.566 95.4608 17.006C95.7968 17.446 96.2908 17.666 96.9428 17.666ZM106.004 18.5V15.254C106.004 14.946 105.976 14.65 105.92 14.366C105.868 14.082 105.774 13.828 105.638 13.604C105.506 13.376 105.326 13.196 105.098 13.064C104.874 12.932 104.59 12.866 104.246 12.866C103.978 12.866 103.734 12.912 103.514 13.004C103.298 13.092 103.112 13.228 102.956 13.412C102.8 13.596 102.678 13.828 102.59 14.108C102.506 14.384 102.464 14.71 102.464 15.086L101.762 14.87C101.762 14.242 101.874 13.704 102.098 13.256C102.326 12.804 102.644 12.458 103.052 12.218C103.464 11.974 103.948 11.852 104.504 11.852C104.924 11.852 105.282 11.918 105.578 12.05C105.874 12.182 106.12 12.358 106.316 12.578C106.512 12.794 106.666 13.038 106.778 13.31C106.89 13.578 106.968 13.852 107.012 14.132C107.06 14.408 107.084 14.67 107.084 14.918V18.5H106.004ZM101.384 18.5V12.02H102.344V13.754H102.464V18.5H101.384Z" fill="white"/>
</svg>
