<svg width="40" height="41" viewBox="0 0 40 41" fill="none" xmlns="http://www.w3.org/2000/svg">
<path d="M12.5 15.5001H14.1667M14.1667 15.5001H27.5M14.1667 15.5001V27.1667C14.1667 27.6088 14.3423 28.0327 14.6548 28.3453C14.9674 28.6578 15.3913 28.8334 15.8333 28.8334H24.1667C24.6087 28.8334 25.0326 28.6578 25.3452 28.3453C25.6577 28.0327 25.8333 27.6088 25.8333 27.1667V15.5001H14.1667ZM16.6667 15.5001V13.8334C16.6667 13.3914 16.8423 12.9675 17.1548 12.6549C17.4674 12.3423 17.8913 12.1667 18.3333 12.1667H21.6667C22.1087 12.1667 22.5326 12.3423 22.8452 12.6549C23.1577 12.9675 23.3333 13.3914 23.3333 13.8334V15.5001M18.3333 19.6667V24.6667M21.6667 19.6667V24.6667" stroke="#667085" stroke-width="1.66667" stroke-linecap="round" stroke-linejoin="round"/>
</svg>
