<svg width="169" height="44" viewBox="0 0 169 44" fill="none" xmlns="http://www.w3.org/2000/svg">
<g filter="url(#filter0_d_2003_3502)">
<rect x="2" y="1" width="165" height="40" rx="8" fill="white"/>
<rect x="2.5" y="1.5" width="164" height="39" rx="7.5" stroke="#D0D5DD"/>
<path d="M23 21H33M20.5 16H35.5M25.5 26H30.5" stroke="#344054" stroke-width="1.67" stroke-linecap="round" stroke-linejoin="round"/>
<path d="M46.98 26V15.92H50.088C50.1907 15.92 50.3703 15.9223 50.627 15.927C50.8837 15.9317 51.1287 15.9503 51.362 15.983C52.1413 16.0857 52.7923 16.3703 53.315 16.837C53.8423 17.299 54.239 17.887 54.505 18.601C54.771 19.315 54.904 20.1013 54.904 20.96C54.904 21.8187 54.771 22.605 54.505 23.319C54.239 24.033 53.8423 24.6233 53.315 25.09C52.7923 25.552 52.1413 25.8343 51.362 25.937C51.1287 25.965 50.8813 25.9837 50.62 25.993C50.3633 25.9977 50.186 26 50.088 26H46.98ZM48.261 24.81H50.088C50.2653 24.81 50.4637 24.8053 50.683 24.796C50.9023 24.782 51.0937 24.761 51.257 24.733C51.8077 24.6303 52.2533 24.3993 52.594 24.04C52.9347 23.6807 53.1843 23.2327 53.343 22.696C53.5017 22.1593 53.581 21.5807 53.581 20.96C53.581 20.3253 53.4993 19.7397 53.336 19.203C53.1773 18.6663 52.9277 18.2207 52.587 17.866C52.2463 17.5113 51.803 17.285 51.257 17.187C51.0937 17.1543 50.9 17.1333 50.676 17.124C50.452 17.1147 50.256 17.11 50.088 17.11H48.261V24.81ZM59.7293 26.21C58.978 26.21 58.3293 26.0397 57.7833 25.699C57.242 25.3583 56.8243 24.887 56.5303 24.285C56.2363 23.683 56.0893 22.9923 56.0893 22.213C56.0893 21.4197 56.2386 20.7243 56.5373 20.127C56.836 19.5297 57.2583 19.0653 57.8043 18.734C58.3503 18.398 58.992 18.23 59.7293 18.23C60.4853 18.23 61.1363 18.4003 61.6823 18.741C62.2283 19.077 62.646 19.546 62.9353 20.148C63.2293 20.7453 63.3763 21.4337 63.3763 22.213C63.3763 23.0017 63.2293 23.697 62.9353 24.299C62.6413 24.8963 62.2213 25.3653 61.6753 25.706C61.1293 26.042 60.4806 26.21 59.7293 26.21ZM59.7293 25.027C60.5133 25.027 61.0966 24.7657 61.4793 24.243C61.862 23.7203 62.0533 23.0437 62.0533 22.213C62.0533 21.359 61.8596 20.68 61.4723 20.176C61.085 19.6673 60.504 19.413 59.7293 19.413C59.202 19.413 58.768 19.532 58.4273 19.77C58.0866 20.008 57.8323 20.337 57.6643 20.757C57.4963 21.177 57.4123 21.6623 57.4123 22.213C57.4123 23.0623 57.6083 23.7437 58.0003 24.257C58.3923 24.7703 58.9686 25.027 59.7293 25.027ZM66.2541 26L63.9441 18.433L65.1831 18.44L66.8701 23.97L68.5711 18.44H69.6701L71.3641 23.97L73.0581 18.44H74.2901L71.9801 26H70.9441L69.1171 20.253L67.2901 26H66.2541ZM75.6942 26V15.71H76.9402V26H75.6942ZM82.2605 26.21C81.5092 26.21 80.8605 26.0397 80.3145 25.699C79.7732 25.3583 79.3555 24.887 79.0615 24.285C78.7675 23.683 78.6205 22.9923 78.6205 22.213C78.6205 21.4197 78.7699 20.7243 79.0685 20.127C79.3672 19.5297 79.7895 19.0653 80.3355 18.734C80.8815 18.398 81.5232 18.23 82.2605 18.23C83.0165 18.23 83.6675 18.4003 84.2135 18.741C84.7595 19.077 85.1772 19.546 85.4665 20.148C85.7605 20.7453 85.9075 21.4337 85.9075 22.213C85.9075 23.0017 85.7605 23.697 85.4665 24.299C85.1725 24.8963 84.7525 25.3653 84.2065 25.706C83.6605 26.042 83.0119 26.21 82.2605 26.21ZM82.2605 25.027C83.0445 25.027 83.6279 24.7657 84.0105 24.243C84.3932 23.7203 84.5845 23.0437 84.5845 22.213C84.5845 21.359 84.3909 20.68 84.0035 20.176C83.6162 19.6673 83.0352 19.413 82.2605 19.413C81.7332 19.413 81.2992 19.532 80.9585 19.77C80.6179 20.008 80.3635 20.337 80.1955 20.757C80.0275 21.177 79.9435 21.6623 79.9435 22.213C79.9435 23.0623 80.1395 23.7437 80.5315 24.257C80.9235 24.7703 81.4999 25.027 82.2605 25.027ZM89.5978 26.21C89.0331 26.21 88.5594 26.1073 88.1768 25.902C87.7988 25.692 87.5118 25.4167 87.3158 25.076C87.1244 24.7353 87.0288 24.362 87.0288 23.956C87.0288 23.5593 87.1034 23.2163 87.2528 22.927C87.4068 22.633 87.6214 22.3903 87.8968 22.199C88.1721 22.003 88.5011 21.849 88.8838 21.737C89.2431 21.639 89.6444 21.555 90.0878 21.485C90.5358 21.4103 90.9884 21.3427 91.4458 21.282C91.9031 21.2213 92.3301 21.163 92.7268 21.107L92.2788 21.366C92.2928 20.694 92.1574 20.197 91.8728 19.875C91.5928 19.553 91.1074 19.392 90.4168 19.392C89.9594 19.392 89.5581 19.497 89.2128 19.707C88.8721 19.9123 88.6318 20.2483 88.4918 20.715L87.3088 20.358C87.4908 19.6953 87.8431 19.175 88.3658 18.797C88.8884 18.419 89.5768 18.23 90.4308 18.23C91.1168 18.23 91.7048 18.3537 92.1948 18.601C92.6894 18.8437 93.0441 19.2123 93.2588 19.707C93.3661 19.9403 93.4338 20.1947 93.4618 20.47C93.4898 20.7407 93.5037 21.0253 93.5037 21.324V26H92.3978V24.187L92.6568 24.355C92.3721 24.9663 91.9731 25.4283 91.4598 25.741C90.9511 26.0537 90.3304 26.21 89.5978 26.21ZM89.7868 25.167C90.2348 25.167 90.6221 25.0877 90.9488 24.929C91.2801 24.7657 91.5461 24.5533 91.7468 24.292C91.9474 24.026 92.0781 23.7367 92.1388 23.424C92.2088 23.1907 92.2461 22.9317 92.2508 22.647C92.2601 22.3577 92.2648 22.136 92.2648 21.982L92.6988 22.171C92.2928 22.227 91.8938 22.2807 91.5018 22.332C91.1098 22.3833 90.7388 22.4393 90.3888 22.5C90.0388 22.556 89.7238 22.6237 89.4438 22.703C89.2384 22.7683 89.0448 22.8523 88.8628 22.955C88.6854 23.0577 88.5408 23.1907 88.4288 23.354C88.3214 23.5127 88.2677 23.711 88.2677 23.949C88.2677 24.1543 88.3191 24.3503 88.4218 24.537C88.5291 24.7237 88.6924 24.8753 88.9118 24.992C89.1358 25.1087 89.4274 25.167 89.7868 25.167ZM98.2918 26.21C97.5871 26.21 96.9828 26.035 96.4788 25.685C95.9748 25.3303 95.5851 24.852 95.3098 24.25C95.0391 23.648 94.9038 22.969 94.9038 22.213C94.9038 21.457 95.0391 20.778 95.3098 20.176C95.5851 19.574 95.9748 19.1003 96.4788 18.755C96.9828 18.405 97.5848 18.23 98.2848 18.23C98.9988 18.23 99.5984 18.4027 100.084 18.748C100.569 19.0933 100.935 19.567 101.183 20.169C101.435 20.771 101.561 21.4523 101.561 22.213C101.561 22.9643 101.435 23.6433 101.183 24.25C100.935 24.852 100.569 25.3303 100.084 25.685C99.5984 26.035 99.0011 26.21 98.2918 26.21ZM98.4458 25.069C98.9544 25.069 99.3721 24.9477 99.6988 24.705C100.025 24.4577 100.266 24.1193 100.42 23.69C100.578 23.256 100.658 22.7637 100.658 22.213C100.658 21.653 100.578 21.1607 100.42 20.736C100.266 20.3067 100.028 19.973 99.7058 19.735C99.3838 19.4923 98.9754 19.371 98.4808 19.371C97.9674 19.371 97.5428 19.497 97.2068 19.749C96.8754 20.001 96.6281 20.3417 96.4648 20.771C96.3061 21.2003 96.2268 21.681 96.2268 22.213C96.2268 22.7497 96.3084 23.235 96.4718 23.669C96.6351 24.0983 96.8801 24.439 97.2068 24.691C97.5381 24.943 97.9511 25.069 98.4458 25.069ZM100.658 26V20.435H100.518V15.92H101.771V26H100.658ZM106.535 26V15.92H110.518C110.616 15.92 110.732 15.9247 110.868 15.934C111.003 15.9387 111.134 15.9527 111.26 15.976C111.806 16.06 112.263 16.2467 112.632 16.536C113.005 16.8253 113.285 17.1917 113.472 17.635C113.658 18.0737 113.752 18.5613 113.752 19.098C113.752 19.8773 113.549 20.554 113.143 21.128C112.737 21.6973 112.142 22.0543 111.358 22.199L110.882 22.276H107.781V26H106.535ZM112.534 26L110.546 21.898L111.778 21.52L113.962 26H112.534ZM107.781 21.093H110.476C110.564 21.093 110.665 21.0883 110.777 21.079C110.893 21.0697 111.003 21.0533 111.106 21.03C111.428 20.9553 111.689 20.82 111.89 20.624C112.095 20.4233 112.244 20.19 112.338 19.924C112.431 19.6533 112.478 19.378 112.478 19.098C112.478 18.818 112.431 18.545 112.338 18.279C112.244 18.0083 112.095 17.7727 111.89 17.572C111.689 17.3713 111.428 17.236 111.106 17.166C111.003 17.138 110.893 17.1217 110.777 17.117C110.665 17.1077 110.564 17.103 110.476 17.103H107.781V21.093ZM118.779 26.21C118.037 26.21 117.389 26.0467 116.833 25.72C116.283 25.3887 115.853 24.929 115.545 24.341C115.237 23.7483 115.083 23.0577 115.083 22.269C115.083 21.443 115.235 20.729 115.538 20.127C115.842 19.5203 116.264 19.0537 116.805 18.727C117.351 18.3957 117.991 18.23 118.723 18.23C119.484 18.23 120.13 18.405 120.662 18.755C121.199 19.105 121.6 19.6043 121.866 20.253C122.137 20.9017 122.254 21.674 122.216 22.57H120.956V22.122C120.942 21.1933 120.753 20.5003 120.389 20.043C120.025 19.581 119.484 19.35 118.765 19.35C117.995 19.35 117.41 19.5973 117.008 20.092C116.607 20.5867 116.406 21.296 116.406 22.22C116.406 23.1113 116.607 23.802 117.008 24.292C117.41 24.782 117.981 25.027 118.723 25.027C119.223 25.027 119.657 24.9127 120.025 24.684C120.394 24.4553 120.683 24.1263 120.893 23.697L122.09 24.11C121.796 24.7773 121.353 25.2953 120.76 25.664C120.172 26.028 119.512 26.21 118.779 26.21ZM115.986 22.57V21.569H121.572V22.57H115.986ZM127.042 26.21C126.333 26.21 125.735 26.035 125.25 25.685C124.765 25.3303 124.396 24.852 124.144 24.25C123.897 23.6433 123.773 22.9643 123.773 22.213C123.773 21.4523 123.897 20.771 124.144 20.169C124.396 19.567 124.765 19.0933 125.25 18.748C125.74 18.4027 126.34 18.23 127.049 18.23C127.749 18.23 128.351 18.405 128.855 18.755C129.364 19.1003 129.753 19.574 130.024 20.176C130.295 20.778 130.43 21.457 130.43 22.213C130.43 22.969 130.295 23.648 130.024 24.25C129.753 24.852 129.364 25.3303 128.855 25.685C128.351 26.035 127.747 26.21 127.042 26.21ZM123.563 29.36V18.44H124.676V24.005H124.816V29.36H123.563ZM126.888 25.069C127.387 25.069 127.8 24.943 128.127 24.691C128.454 24.439 128.699 24.0983 128.862 23.669C129.025 23.235 129.107 22.7497 129.107 22.213C129.107 21.681 129.025 21.2003 128.862 20.771C128.703 20.3417 128.456 20.001 128.12 19.749C127.789 19.497 127.366 19.371 126.853 19.371C126.363 19.371 125.957 19.4923 125.635 19.735C125.313 19.973 125.073 20.3067 124.914 20.736C124.755 21.1607 124.676 21.653 124.676 22.213C124.676 22.7637 124.753 23.256 124.907 23.69C125.066 24.1193 125.308 24.4577 125.635 24.705C125.962 24.9477 126.379 25.069 126.888 25.069ZM135.184 26.21C134.433 26.21 133.784 26.0397 133.238 25.699C132.697 25.3583 132.279 24.887 131.985 24.285C131.691 23.683 131.544 22.9923 131.544 22.213C131.544 21.4197 131.694 20.7243 131.992 20.127C132.291 19.5297 132.713 19.0653 133.259 18.734C133.805 18.398 134.447 18.23 135.184 18.23C135.94 18.23 136.591 18.4003 137.137 18.741C137.683 19.077 138.101 19.546 138.39 20.148C138.684 20.7453 138.831 21.4337 138.831 22.213C138.831 23.0017 138.684 23.697 138.39 24.299C138.096 24.8963 137.676 25.3653 137.13 25.706C136.584 26.042 135.936 26.21 135.184 26.21ZM135.184 25.027C135.968 25.027 136.552 24.7657 136.934 24.243C137.317 23.7203 137.508 23.0437 137.508 22.213C137.508 21.359 137.315 20.68 136.927 20.176C136.54 19.6673 135.959 19.413 135.184 19.413C134.657 19.413 134.223 19.532 133.882 19.77C133.542 20.008 133.287 20.337 133.119 20.757C132.951 21.177 132.867 21.6623 132.867 22.213C132.867 23.0623 133.063 23.7437 133.455 24.257C133.847 24.7703 134.424 25.027 135.184 25.027ZM140.373 26V18.44H141.486V20.267L141.304 20.029C141.392 19.7957 141.507 19.581 141.647 19.385C141.791 19.189 141.952 19.028 142.13 18.902C142.326 18.7433 142.547 18.622 142.795 18.538C143.042 18.454 143.294 18.405 143.551 18.391C143.807 18.3723 144.048 18.3887 144.272 18.44V19.609C144.01 19.539 143.723 19.5203 143.411 19.553C143.098 19.5857 142.809 19.7 142.543 19.896C142.3 20.0687 142.111 20.2787 141.976 20.526C141.845 20.7733 141.754 21.0417 141.703 21.331C141.651 21.6157 141.626 21.9073 141.626 22.206V26H140.373ZM149.816 26C149.368 26.0887 148.925 26.1237 148.486 26.105C148.052 26.091 147.665 26.0047 147.324 25.846C146.984 25.6827 146.725 25.4307 146.547 25.09C146.398 24.7913 146.316 24.4903 146.302 24.187C146.293 23.879 146.288 23.5313 146.288 23.144V16.34H147.534V23.088C147.534 23.396 147.537 23.6597 147.541 23.879C147.551 24.0983 147.6 24.2873 147.688 24.446C147.856 24.7447 148.122 24.9197 148.486 24.971C148.855 25.0223 149.298 25.0083 149.816 24.929V26ZM144.755 19.469V18.44H149.816V19.469H144.755Z" fill="#344054"/>
</g>
<defs>
<filter id="filter0_d_2003_3502" x="0" y="0" width="169" height="44" filterUnits="userSpaceOnUse" color-interpolation-filters="sRGB">
<feFlood flood-opacity="0" result="BackgroundImageFix"/>
<feColorMatrix in="SourceAlpha" type="matrix" values="0 0 0 0 0 0 0 0 0 0 0 0 0 0 0 0 0 0 127 0" result="hardAlpha"/>
<feOffset dy="1"/>
<feGaussianBlur stdDeviation="1"/>
<feColorMatrix type="matrix" values="0 0 0 0 0.0627451 0 0 0 0 0.0941176 0 0 0 0 0.156863 0 0 0 0.05 0"/>
<feBlend mode="normal" in2="BackgroundImageFix" result="effect1_dropShadow_2003_3502"/>
<feBlend mode="normal" in="SourceGraphic" in2="effect1_dropShadow_2003_3502" result="shape"/>
</filter>
</defs>
</svg>
