<svg width="15" height="15" viewBox="0 0 15 15" fill="none" xmlns="http://www.w3.org/2000/svg">
<path fill-rule="evenodd" clip-rule="evenodd" d="M3.81086 9.66858C3.70419 9.66858 3.59686 9.63458 3.50619 9.56525C3.28752 9.39658 3.24619 9.08258 3.41486 8.86391L5.41019 6.27058C5.49152 6.16458 5.61219 6.09591 5.74419 6.07925C5.87886 6.06191 6.01086 6.09925 6.11553 6.18258L7.99552 7.65925L9.64019 5.53725C9.80953 5.31791 10.1229 5.27725 10.3415 5.44791C10.5602 5.61725 10.6002 5.93125 10.4309 6.14925L8.47752 8.66925C8.39619 8.77458 8.27619 8.84325 8.14419 8.85925C8.01086 8.87725 7.87886 8.83858 7.77353 8.75658L5.89486 7.28058L4.20752 9.47325C4.10886 9.60125 3.96086 9.66858 3.81086 9.66858Z" fill="#60626E"/>
<mask id="mask0_2221_495" style="mask-type:luminance" maskUnits="userSpaceOnUse" x="10" y="0" width="5" height="4">
<path fill-rule="evenodd" clip-rule="evenodd" d="M10.5303 0.333496H14.0929V3.89676H10.5303V0.333496Z" fill="white"/>
</mask>
<g mask="url(#mask0_2221_495)">
<path fill-rule="evenodd" clip-rule="evenodd" d="M12.3116 1.3335C11.8809 1.3335 11.5303 1.6835 11.5303 2.11483C11.5303 2.5455 11.8809 2.89683 12.3116 2.89683C12.7423 2.89683 13.0929 2.5455 13.0929 2.11483C13.0929 1.6835 12.7423 1.3335 12.3116 1.3335ZM12.3116 3.89683C11.3296 3.89683 10.5303 3.0975 10.5303 2.11483C10.5303 1.13216 11.3296 0.333496 12.3116 0.333496C13.2943 0.333496 14.0929 1.13216 14.0929 2.11483C14.0929 3.0975 13.2943 3.89683 12.3116 3.89683Z" fill="#60626E"/>
</g>
<mask id="mask1_2221_495" style="mask-type:luminance" maskUnits="userSpaceOnUse" x="0" y="0" width="14" height="15">
<path fill-rule="evenodd" clip-rule="evenodd" d="M0.333496 0.894775H13.5748V14.1354H0.333496V0.894775Z" fill="white"/>
</mask>
<g mask="url(#mask1_2221_495)">
<path fill-rule="evenodd" clip-rule="evenodd" d="M9.82216 14.1354H4.08616C1.8415 14.1354 0.333496 12.5588 0.333496 10.2121V4.82411C0.333496 2.47411 1.8415 0.894775 4.08616 0.894775H8.9315C9.2075 0.894775 9.4315 1.11878 9.4315 1.39478C9.4315 1.67078 9.2075 1.89478 8.9315 1.89478H4.08616C2.41416 1.89478 1.3335 3.04411 1.3335 4.82411V10.2121C1.3335 12.0154 2.38816 13.1354 4.08616 13.1354H9.82216C11.4942 13.1354 12.5748 11.9881 12.5748 10.2121V5.51944C12.5748 5.24344 12.7988 5.01944 13.0748 5.01944C13.3508 5.01944 13.5748 5.24344 13.5748 5.51944V10.2121C13.5748 12.5588 12.0668 14.1354 9.82216 14.1354Z" fill="#60626E"/>
</g>
</svg>
