<svg width="40" height="41" viewBox="0 0 40 41" fill="none" xmlns="http://www.w3.org/2000/svg">
<path d="M24.167 12.9999C24.3859 12.7811 24.6457 12.6074 24.9317 12.489C25.2176 12.3705 25.5241 12.3096 25.8337 12.3096C26.1432 12.3096 26.4497 12.3705 26.7357 12.489C27.0216 12.6074 27.2815 12.7811 27.5003 12.9999C27.7192 13.2188 27.8928 13.4786 28.0113 13.7646C28.1297 14.0506 28.1907 14.3571 28.1907 14.6666C28.1907 14.9761 28.1297 15.2826 28.0113 15.5686C27.8928 15.8546 27.7192 16.1144 27.5003 16.3333L16.2503 27.5833L11.667 28.8333L12.917 24.2499L24.167 12.9999Z" stroke="#667085" stroke-width="1.66667" stroke-linecap="round" stroke-linejoin="round"/>
</svg>
