<svg width="105" height="44" viewBox="0 0 105 44" fill="none" xmlns="http://www.w3.org/2000/svg">
<g filter="url(#filter0_d_2003_3498)">
<rect x="2" y="1" width="101" height="40" rx="8" fill="white"/>
<rect x="2.5" y="1.5" width="100" height="39" rx="7.5" stroke="#D0D5DD"/>
<path d="M23 21H33M20.5 16H35.5M25.5 26H30.5" stroke="#344054" stroke-width="1.67" stroke-linecap="round" stroke-linejoin="round"/>
<path d="M46.98 26V15.92H52.86V17.166H48.226V20.337H52.02V21.583H48.226V26H46.98ZM54.2567 17.103V15.815H55.5027V17.103H54.2567ZM54.2567 26V18.44H55.5027V26H54.2567ZM57.743 26V15.71H58.989V26H57.743ZM65.3104 26C64.8624 26.0887 64.419 26.1237 63.9804 26.105C63.5464 26.091 63.159 26.0047 62.8184 25.846C62.4777 25.6827 62.2187 25.4307 62.0414 25.09C61.892 24.7913 61.8104 24.4903 61.7964 24.187C61.787 23.879 61.7824 23.5313 61.7824 23.144V16.34H63.0284V23.088C63.0284 23.396 63.0307 23.6597 63.0354 23.879C63.0447 24.0983 63.0937 24.2873 63.1824 24.446C63.3504 24.7447 63.6164 24.9197 63.9804 24.971C64.349 25.0223 64.7924 25.0083 65.3104 24.929V26ZM60.2494 19.469V18.44H65.3104V19.469H60.2494ZM69.8068 26.21C69.0648 26.21 68.4161 26.0467 67.8608 25.72C67.3101 25.3887 66.8808 24.929 66.5728 24.341C66.2648 23.7483 66.1108 23.0577 66.1108 22.269C66.1108 21.443 66.2624 20.729 66.5658 20.127C66.8691 19.5203 67.2914 19.0537 67.8328 18.727C68.3788 18.3957 69.0181 18.23 69.7508 18.23C70.5114 18.23 71.1578 18.405 71.6898 18.755C72.2264 19.105 72.6278 19.6043 72.8938 20.253C73.1644 20.9017 73.2811 21.674 73.2438 22.57H71.9838V22.122C71.9698 21.1933 71.7808 20.5003 71.4168 20.043C71.0528 19.581 70.5114 19.35 69.7928 19.35C69.0228 19.35 68.4371 19.5973 68.0358 20.092C67.6344 20.5867 67.4338 21.296 67.4338 22.22C67.4338 23.1113 67.6344 23.802 68.0358 24.292C68.4371 24.782 69.0088 25.027 69.7508 25.027C70.2501 25.027 70.6841 24.9127 71.0528 24.684C71.4214 24.4553 71.7108 24.1263 71.9208 23.697L73.1178 24.11C72.8238 24.7773 72.3804 25.2953 71.7878 25.664C71.1998 26.028 70.5394 26.21 69.8068 26.21ZM67.0138 22.57V21.569H72.5998V22.57H67.0138ZM74.8023 26V18.44H75.9153V20.267L75.7333 20.029C75.8219 19.7957 75.9363 19.581 76.0763 19.385C76.2209 19.189 76.3819 19.028 76.5593 18.902C76.7553 18.7433 76.9769 18.622 77.2243 18.538C77.4716 18.454 77.7236 18.405 77.9803 18.391C78.2369 18.3723 78.4773 18.3887 78.7013 18.44V19.609C78.4399 19.539 78.1529 19.5203 77.8403 19.553C77.5276 19.5857 77.2383 19.7 76.9723 19.896C76.7296 20.0687 76.5406 20.2787 76.4053 20.526C76.2746 20.7733 76.1836 21.0417 76.1323 21.331C76.0809 21.6157 76.0553 21.9073 76.0553 22.206V26H74.8023ZM82.6075 26.203C81.7068 26.203 80.9672 26.007 80.3885 25.615C79.8145 25.2183 79.4622 24.6653 79.3315 23.956L80.6055 23.753C80.7082 24.1637 80.9438 24.4903 81.3125 24.733C81.6812 24.971 82.1385 25.09 82.6845 25.09C83.2025 25.09 83.6085 24.9827 83.9025 24.768C84.1965 24.5533 84.3435 24.2617 84.3435 23.893C84.3435 23.6783 84.2945 23.5057 84.1965 23.375C84.0985 23.2397 83.8955 23.1137 83.5875 22.997C83.2842 22.8803 82.8245 22.7403 82.2085 22.577C81.5412 22.3997 81.0162 22.2153 80.6335 22.024C80.2508 21.8327 79.9778 21.611 79.8145 21.359C79.6512 21.107 79.5695 20.8013 79.5695 20.442C79.5695 19.9987 79.6908 19.6113 79.9335 19.28C80.1762 18.944 80.5145 18.685 80.9485 18.503C81.3872 18.321 81.8958 18.23 82.4745 18.23C83.0485 18.23 83.5618 18.321 84.0145 18.503C84.4672 18.685 84.8312 18.944 85.1065 19.28C85.3865 19.6113 85.5522 19.9987 85.6035 20.442L84.3295 20.673C84.2688 20.267 84.0728 19.9473 83.7415 19.714C83.4148 19.4807 82.9925 19.357 82.4745 19.343C81.9845 19.3243 81.5855 19.4107 81.2775 19.602C80.9742 19.7933 80.8225 20.0523 80.8225 20.379C80.8225 20.561 80.8785 20.7173 80.9905 20.848C81.1072 20.9787 81.3195 21.1023 81.6275 21.219C81.9402 21.3357 82.3928 21.4687 82.9855 21.618C83.6528 21.786 84.1778 21.9703 84.5605 22.171C84.9478 22.367 85.2232 22.6003 85.3865 22.871C85.5498 23.137 85.6315 23.466 85.6315 23.858C85.6315 24.586 85.3632 25.16 84.8265 25.58C84.2898 25.9953 83.5502 26.203 82.6075 26.203Z" fill="#344054"/>
</g>
<defs>
<filter id="filter0_d_2003_3498" x="0" y="0" width="105" height="44" filterUnits="userSpaceOnUse" color-interpolation-filters="sRGB">
<feFlood flood-opacity="0" result="BackgroundImageFix"/>
<feColorMatrix in="SourceAlpha" type="matrix" values="0 0 0 0 0 0 0 0 0 0 0 0 0 0 0 0 0 0 127 0" result="hardAlpha"/>
<feOffset dy="1"/>
<feGaussianBlur stdDeviation="1"/>
<feColorMatrix type="matrix" values="0 0 0 0 0.0627451 0 0 0 0 0.0941176 0 0 0 0 0.156863 0 0 0 0.05 0"/>
<feBlend mode="normal" in2="BackgroundImageFix" result="effect1_dropShadow_2003_3498"/>
<feBlend mode="normal" in="SourceGraphic" in2="effect1_dropShadow_2003_3498" result="shape"/>
</filter>
</defs>
</svg>
