<svg width="64" height="64" viewBox="0 0 64 64" fill="none" xmlns="http://www.w3.org/2000/svg">
<rect width="64" height="64" rx="32" fill="#F5F5F5"/>
<path d="M32.6667 20.0001H26.4C24.1598 20.0001 23.0397 20.0001 22.184 20.4361C21.4314 20.8195 20.8195 21.4315 20.436 22.1841C20 23.0398 20 24.1599 20 26.4001V37.6001C20 39.8403 20 40.9604 20.436 41.816C20.8195 42.5687 21.4314 43.1806 22.184 43.5641C23.0397 44.0001 24.1598 44.0001 26.4 44.0001H38.6667C39.9066 44.0001 40.5266 44.0001 41.0353 43.8638C42.4156 43.4939 43.4938 42.4157 43.8637 41.0354C44 40.5267 44 39.9067 44 38.6668M41.3333 26.6667V18.6667M37.3333 22.6667H45.3333M30 27.3334C30 28.8062 28.8061 30.0001 27.3333 30.0001C25.8606 30.0001 24.6667 28.8062 24.6667 27.3334C24.6667 25.8607 25.8606 24.6667 27.3333 24.6667C28.8061 24.6667 30 25.8607 30 27.3334ZM35.9867 31.8909L24.7082 42.1441C24.0738 42.7209 23.7566 43.0092 23.7286 43.259C23.7043 43.4755 23.7873 43.6903 23.9509 43.8341C24.1397 44.0001 24.5684 44.0001 25.4257 44.0001H37.9413C39.8602 44.0001 40.8196 44.0001 41.5732 43.6777C42.5193 43.273 43.2729 42.5193 43.6776 41.5733C44 40.8197 44 39.8603 44 37.9414C44 37.2957 44 36.9729 43.9294 36.6723C43.8407 36.2945 43.6706 35.9406 43.431 35.6353C43.2403 35.3924 42.9883 35.1907 42.4841 34.7874L38.7544 31.8036C38.2499 31.4 37.9976 31.1981 37.7197 31.1269C37.4748 31.0641 37.2172 31.0722 36.9767 31.1503C36.7039 31.2389 36.4648 31.4563 35.9867 31.8909Z" stroke="#535862" stroke-width="2.66667" stroke-linecap="round" stroke-linejoin="round"/>
</svg>
