<svg width="63" height="40" viewBox="0 0 63 40" fill="none" xmlns="http://www.w3.org/2000/svg">
<g filter="url(#filter0_d_2003_3680)">
<rect x="2" y="1" width="59" height="36" rx="8" fill="white"/>
<rect x="2.5" y="1.5" width="58" height="35" rx="7.5" stroke="#D0D5DD"/>
<path d="M16.98 24V13.92H18.24L23.497 21.795V13.92H24.757V24H23.497L18.24 16.118V24H16.98ZM29.9904 24.21C29.2484 24.21 28.5997 24.0467 28.0444 23.72C27.4937 23.3887 27.0644 22.929 26.7564 22.341C26.4484 21.7483 26.2944 21.0577 26.2944 20.269C26.2944 19.443 26.446 18.729 26.7494 18.127C27.0527 17.5203 27.475 17.0537 28.0164 16.727C28.5624 16.3957 29.2017 16.23 29.9344 16.23C30.695 16.23 31.3414 16.405 31.8734 16.755C32.41 17.105 32.8114 17.6043 33.0774 18.253C33.348 18.9017 33.4647 19.674 33.4274 20.57H32.1674V20.122C32.1534 19.1933 31.9644 18.5003 31.6004 18.043C31.2364 17.581 30.695 17.35 29.9764 17.35C29.2064 17.35 28.6207 17.5973 28.2194 18.092C27.818 18.5867 27.6174 19.296 27.6174 20.22C27.6174 21.1113 27.818 21.802 28.2194 22.292C28.6207 22.782 29.1924 23.027 29.9344 23.027C30.4337 23.027 30.8677 22.9127 31.2364 22.684C31.605 22.4553 31.8944 22.1263 32.1044 21.697L33.3014 22.11C33.0074 22.7773 32.564 23.2953 31.9714 23.664C31.3834 24.028 30.723 24.21 29.9904 24.21ZM27.1974 20.57V19.569H32.7834V20.57H27.1974ZM33.8724 24L36.7634 20.178L33.9354 16.44H35.4194L37.4914 19.212L39.5424 16.44H41.0264L38.1984 20.178L41.0964 24H39.6054L37.4914 21.144L35.3634 24H33.8724ZM46.4393 24C45.9913 24.0887 45.5479 24.1237 45.1093 24.105C44.6753 24.091 44.2879 24.0047 43.9473 23.846C43.6066 23.6827 43.3476 23.4307 43.1703 23.09C43.0209 22.7913 42.9393 22.4903 42.9253 22.187C42.9159 21.879 42.9113 21.5313 42.9113 21.144V14.34H44.1573V21.088C44.1573 21.396 44.1596 21.6597 44.1643 21.879C44.1736 22.0983 44.2226 22.2873 44.3113 22.446C44.4793 22.7447 44.7453 22.9197 45.1093 22.971C45.4779 23.0223 45.9213 23.0083 46.4393 22.929V24ZM41.3783 17.469V16.44H46.4393V17.469H41.3783Z" fill="#344054"/>
</g>
<defs>
<filter id="filter0_d_2003_3680" x="0" y="0" width="63" height="40" filterUnits="userSpaceOnUse" color-interpolation-filters="sRGB">
<feFlood flood-opacity="0" result="BackgroundImageFix"/>
<feColorMatrix in="SourceAlpha" type="matrix" values="0 0 0 0 0 0 0 0 0 0 0 0 0 0 0 0 0 0 127 0" result="hardAlpha"/>
<feOffset dy="1"/>
<feGaussianBlur stdDeviation="1"/>
<feColorMatrix type="matrix" values="0 0 0 0 0.0627451 0 0 0 0 0.0941176 0 0 0 0 0.156863 0 0 0 0.05 0"/>
<feBlend mode="normal" in2="BackgroundImageFix" result="effect1_dropShadow_2003_3680"/>
<feBlend mode="normal" in="SourceGraphic" in2="effect1_dropShadow_2003_3680" result="shape"/>
</filter>
</defs>
</svg>
