<svg width="89" height="40" viewBox="0 0 89 40" fill="none" xmlns="http://www.w3.org/2000/svg">
<g filter="url(#filter0_d_2003_3678)">
<rect x="2" y="1" width="85" height="36" rx="8" fill="white"/>
<rect x="2.5" y="1.5" width="84" height="35" rx="7.5" stroke="#D0D5DD"/>
<path d="M16.98 24V13.92H20.963C21.061 13.92 21.1777 13.9247 21.313 13.934C21.4483 13.9387 21.579 13.9527 21.705 13.976C22.251 14.06 22.7083 14.2467 23.077 14.536C23.4503 14.8253 23.7303 15.1917 23.917 15.635C24.1037 16.0737 24.197 16.5613 24.197 17.098C24.197 17.63 24.1013 18.1177 23.91 18.561C23.7233 18.9997 23.4433 19.366 23.07 19.66C22.7013 19.9493 22.2463 20.136 21.705 20.22C21.579 20.2387 21.4483 20.2527 21.313 20.262C21.1777 20.2713 21.061 20.276 20.963 20.276H18.226V24H16.98ZM18.226 19.093H20.921C21.0097 19.093 21.11 19.0883 21.222 19.079C21.3387 19.0697 21.4483 19.0533 21.551 19.03C21.873 18.9553 22.1343 18.82 22.335 18.624C22.5403 18.4233 22.6897 18.19 22.783 17.924C22.8763 17.6533 22.923 17.378 22.923 17.098C22.923 16.818 22.8763 16.545 22.783 16.279C22.6897 16.0083 22.5403 15.7727 22.335 15.572C22.1343 15.3713 21.873 15.236 21.551 15.166C21.4483 15.138 21.3387 15.1217 21.222 15.117C21.11 15.1077 21.0097 15.103 20.921 15.103H18.226V19.093ZM25.5933 24V16.44H26.7063V18.267L26.5243 18.029C26.6129 17.7957 26.7273 17.581 26.8673 17.385C27.0119 17.189 27.1729 17.028 27.3503 16.902C27.5463 16.7433 27.7679 16.622 28.0153 16.538C28.2626 16.454 28.5146 16.405 28.7713 16.391C29.0279 16.3723 29.2683 16.3887 29.4923 16.44V17.609C29.2309 17.539 28.9439 17.5203 28.6313 17.553C28.3186 17.5857 28.0293 17.7 27.7633 17.896C27.5206 18.0687 27.3316 18.2787 27.1963 18.526C27.0656 18.7733 26.9746 19.0417 26.9233 19.331C26.8719 19.6157 26.8463 19.9073 26.8463 20.206V24H25.5933ZM33.9552 24.21C33.2132 24.21 32.5646 24.0467 32.0092 23.72C31.4586 23.3887 31.0292 22.929 30.7212 22.341C30.4132 21.7483 30.2592 21.0577 30.2592 20.269C30.2592 19.443 30.4109 18.729 30.7142 18.127C31.0176 17.5203 31.4399 17.0537 31.9812 16.727C32.5272 16.3957 33.1666 16.23 33.8992 16.23C34.6599 16.23 35.3062 16.405 35.8382 16.755C36.3749 17.105 36.7762 17.6043 37.0422 18.253C37.3129 18.9017 37.4296 19.674 37.3922 20.57H36.1322V20.122C36.1182 19.1933 35.9292 18.5003 35.5652 18.043C35.2012 17.581 34.6599 17.35 33.9412 17.35C33.1712 17.35 32.5856 17.5973 32.1842 18.092C31.7829 18.5867 31.5822 19.296 31.5822 20.22C31.5822 21.1113 31.7829 21.802 32.1842 22.292C32.5856 22.782 33.1572 23.027 33.8992 23.027C34.3986 23.027 34.8326 22.9127 35.2012 22.684C35.5699 22.4553 35.8592 22.1263 36.0692 21.697L37.2662 22.11C36.9722 22.7773 36.5289 23.2953 35.9362 23.664C35.3482 24.028 34.6879 24.21 33.9552 24.21ZM31.1622 20.57V19.569H36.7482V20.57H31.1622ZM40.7213 24L37.9773 16.44H39.2373L41.3583 22.411L43.4723 16.44H44.7393L41.9953 24H40.7213ZM46.1454 15.103V13.815H47.3914V15.103H46.1454ZM46.1454 24V16.44H47.3914V24H46.1454ZM52.7117 24.21C51.9604 24.21 51.3117 24.0397 50.7657 23.699C50.2244 23.3583 49.8067 22.887 49.5127 22.285C49.2187 21.683 49.0717 20.9923 49.0717 20.213C49.0717 19.4197 49.2211 18.7243 49.5197 18.127C49.8184 17.5297 50.2407 17.0653 50.7867 16.734C51.3327 16.398 51.9744 16.23 52.7117 16.23C53.4677 16.23 54.1187 16.4003 54.6647 16.741C55.2107 17.077 55.6284 17.546 55.9177 18.148C56.2117 18.7453 56.3587 19.4337 56.3587 20.213C56.3587 21.0017 56.2117 21.697 55.9177 22.299C55.6237 22.8963 55.2037 23.3653 54.6577 23.706C54.1117 24.042 53.4631 24.21 52.7117 24.21ZM52.7117 23.027C53.4957 23.027 54.0791 22.7657 54.4617 22.243C54.8444 21.7203 55.0357 21.0437 55.0357 20.213C55.0357 19.359 54.8421 18.68 54.4547 18.176C54.0674 17.6673 53.4864 17.413 52.7117 17.413C52.1844 17.413 51.7504 17.532 51.4097 17.77C51.0691 18.008 50.8147 18.337 50.6467 18.757C50.4787 19.177 50.3947 19.6623 50.3947 20.213C50.3947 21.0623 50.5907 21.7437 50.9827 22.257C51.3747 22.7703 51.9511 23.027 52.7117 23.027ZM60.7699 24.196C60.2846 24.196 59.8669 24.119 59.5169 23.965C59.1716 23.811 58.8846 23.6057 58.6559 23.349C58.4273 23.0923 58.2476 22.8077 58.1169 22.495C57.9863 22.1823 57.8929 21.8627 57.8369 21.536C57.7856 21.2093 57.7599 20.9037 57.7599 20.619V16.44H59.0199V20.227C59.0199 20.5817 59.0526 20.9247 59.1179 21.256C59.1833 21.5873 59.2929 21.886 59.4469 22.152C59.6056 22.418 59.8156 22.628 60.0769 22.782C60.3429 22.936 60.6743 23.013 61.0709 23.013C61.3836 23.013 61.6683 22.9593 61.9249 22.852C62.1816 22.7447 62.4009 22.586 62.5829 22.376C62.7649 22.1613 62.9049 21.8907 63.0029 21.564C63.1009 21.2373 63.1499 20.857 63.1499 20.423L63.9689 20.675C63.9689 21.403 63.8359 22.0307 63.5699 22.558C63.3086 23.0853 62.9376 23.4913 62.4569 23.776C61.9809 24.056 61.4186 24.196 60.7699 24.196ZM63.2899 24V21.977H63.1499V16.44H64.4029V24H63.2899ZM69.2188 24.203C68.3181 24.203 67.5785 24.007 66.9998 23.615C66.4258 23.2183 66.0735 22.6653 65.9428 21.956L67.2168 21.753C67.3195 22.1637 67.5551 22.4903 67.9238 22.733C68.2925 22.971 68.7498 23.09 69.2958 23.09C69.8138 23.09 70.2198 22.9827 70.5138 22.768C70.8078 22.5533 70.9548 22.2617 70.9548 21.893C70.9548 21.6783 70.9058 21.5057 70.8078 21.375C70.7098 21.2397 70.5068 21.1137 70.1988 20.997C69.8955 20.8803 69.4358 20.7403 68.8198 20.577C68.1525 20.3997 67.6275 20.2153 67.2448 20.024C66.8621 19.8327 66.5891 19.611 66.4258 19.359C66.2625 19.107 66.1808 18.8013 66.1808 18.442C66.1808 17.9987 66.3021 17.6113 66.5448 17.28C66.7875 16.944 67.1258 16.685 67.5598 16.503C67.9985 16.321 68.5071 16.23 69.0858 16.23C69.6598 16.23 70.1731 16.321 70.6258 16.503C71.0785 16.685 71.4425 16.944 71.7178 17.28C71.9978 17.6113 72.1635 17.9987 72.2148 18.442L70.9408 18.673C70.8801 18.267 70.6841 17.9473 70.3528 17.714C70.0261 17.4807 69.6038 17.357 69.0858 17.343C68.5958 17.3243 68.1968 17.4107 67.8888 17.602C67.5855 17.7933 67.4338 18.0523 67.4338 18.379C67.4338 18.561 67.4898 18.7173 67.6018 18.848C67.7185 18.9787 67.9308 19.1023 68.2388 19.219C68.5515 19.3357 69.0041 19.4687 69.5968 19.618C70.2641 19.786 70.7891 19.9703 71.1718 20.171C71.5591 20.367 71.8345 20.6003 71.9978 20.871C72.1611 21.137 72.2428 21.466 72.2428 21.858C72.2428 22.586 71.9745 23.16 71.4378 23.58C70.9011 23.9953 70.1615 24.203 69.2188 24.203Z" fill="#344054"/>
</g>
<defs>
<filter id="filter0_d_2003_3678" x="0" y="0" width="89" height="40" filterUnits="userSpaceOnUse" color-interpolation-filters="sRGB">
<feFlood flood-opacity="0" result="BackgroundImageFix"/>
<feColorMatrix in="SourceAlpha" type="matrix" values="0 0 0 0 0 0 0 0 0 0 0 0 0 0 0 0 0 0 127 0" result="hardAlpha"/>
<feOffset dy="1"/>
<feGaussianBlur stdDeviation="1"/>
<feColorMatrix type="matrix" values="0 0 0 0 0.0627451 0 0 0 0 0.0941176 0 0 0 0 0.156863 0 0 0 0.05 0"/>
<feBlend mode="normal" in2="BackgroundImageFix" result="effect1_dropShadow_2003_3678"/>
<feBlend mode="normal" in="SourceGraphic" in2="effect1_dropShadow_2003_3678" result="shape"/>
</filter>
</defs>
</svg>
