<svg width="92" height="28" viewBox="0 0 92 28" fill="none" xmlns="http://www.w3.org/2000/svg">
<rect x="0.5" y="0.5" width="91" height="27" rx="13.5" fill="#141414"/>
<rect x="0.5" y="0.5" width="91" height="27" rx="13.5" stroke="#262626"/>
<path d="M26.1035 8.16796H23.552L22.823 7.43896H19.178L18.449 8.16796H15.8975V9.62596H26.1035M16.6265 19.103C16.6265 19.4897 16.7801 19.8605 17.0535 20.1339C17.3269 20.4074 17.6978 20.561 18.0845 20.561H23.9165C24.3031 20.561 24.674 20.4074 24.9474 20.1339C25.2209 19.8605 25.3745 19.4897 25.3745 19.103V10.355H16.6265V19.103Z" fill="white"/>
<path d="M30.9425 18.5V9.86H34.3565C34.4405 9.86 34.5405 9.864 34.6565 9.872C34.7725 9.876 34.8845 9.888 34.9925 9.908C35.4605 9.98 35.8525 10.14 36.1685 10.388C36.4885 10.636 36.7285 10.95 36.8885 11.33C37.0485 11.706 37.1285 12.124 37.1285 12.584C37.1285 13.252 36.9545 13.832 36.6065 14.324C36.2585 14.812 35.7485 15.118 35.0765 15.242L34.6685 15.308H32.0105V18.5H30.9425ZM36.0845 18.5L34.3805 14.984L35.4365 14.66L37.3085 18.5H36.0845ZM32.0105 14.294H34.3205C34.3965 14.294 34.4825 14.29 34.5785 14.282C34.6785 14.274 34.7725 14.26 34.8605 14.24C35.1365 14.176 35.3605 14.06 35.5325 13.892C35.7085 13.72 35.8365 13.52 35.9165 13.292C35.9965 13.06 36.0365 12.824 36.0365 12.584C36.0365 12.344 35.9965 12.11 35.9165 11.882C35.8365 11.65 35.7085 11.448 35.5325 11.276C35.3605 11.104 35.1365 10.988 34.8605 10.928C34.7725 10.904 34.6785 10.89 34.5785 10.886C34.4825 10.878 34.3965 10.874 34.3205 10.874H32.0105V14.294ZM41.438 18.68C40.802 18.68 40.246 18.54 39.77 18.26C39.298 17.976 38.93 17.582 38.666 17.078C38.402 16.57 38.27 15.978 38.27 15.302C38.27 14.594 38.4 13.982 38.66 13.466C38.92 12.946 39.282 12.546 39.746 12.266C40.214 11.982 40.762 11.84 41.39 11.84C42.042 11.84 42.596 11.99 43.052 12.29C43.512 12.59 43.856 13.018 44.084 13.574C44.316 14.13 44.416 14.792 44.384 15.56H43.304V15.176C43.292 14.38 43.13 13.786 42.818 13.394C42.506 12.998 42.042 12.8 41.426 12.8C40.766 12.8 40.264 13.012 39.92 13.436C39.576 13.86 39.404 14.468 39.404 15.26C39.404 16.024 39.576 16.616 39.92 17.036C40.264 17.456 40.754 17.666 41.39 17.666C41.818 17.666 42.19 17.568 42.506 17.372C42.822 17.176 43.07 16.894 43.25 16.526L44.276 16.88C44.024 17.452 43.644 17.896 43.136 18.212C42.632 18.524 42.066 18.68 41.438 18.68ZM39.044 15.56V14.702H43.832V15.56H39.044ZM53.2901 18.5L53.2961 14.354C53.2961 13.87 53.1661 13.492 52.9061 13.22C52.6501 12.944 52.3161 12.806 51.9041 12.806C51.6641 12.806 51.4361 12.862 51.2201 12.974C51.0041 13.082 50.8281 13.254 50.6921 13.49C50.5561 13.722 50.4881 14.02 50.4881 14.384L49.9241 14.156C49.9161 13.696 50.0101 13.294 50.2061 12.95C50.4061 12.602 50.6781 12.332 51.0221 12.14C51.3661 11.948 51.7541 11.852 52.1861 11.852C52.8621 11.852 53.3941 12.058 53.7821 12.47C54.1701 12.878 54.3641 13.428 54.3641 14.12L54.3581 18.5H53.2901ZM45.5381 18.5V12.02H46.4921V13.754H46.6121V18.5H45.5381ZM49.4201 18.5L49.4261 14.396C49.4261 13.9 49.2981 13.512 49.0421 13.232C48.7861 12.948 48.4461 12.806 48.0221 12.806C47.6021 12.806 47.2621 12.95 47.0021 13.238C46.7421 13.526 46.6121 13.908 46.6121 14.384L46.0481 14.048C46.0481 13.628 46.1481 13.252 46.3481 12.92C46.5481 12.588 46.8201 12.328 47.1641 12.14C47.5081 11.948 47.8981 11.852 48.3341 11.852C48.7701 11.852 49.1501 11.944 49.4741 12.128C49.7981 12.312 50.0481 12.576 50.2241 12.92C50.4001 13.26 50.4881 13.666 50.4881 14.138L50.4821 18.5H49.4201ZM58.6283 18.68C57.9843 18.68 57.4283 18.534 56.9603 18.242C56.4963 17.95 56.1383 17.546 55.8863 17.03C55.6343 16.514 55.5083 15.922 55.5083 15.254C55.5083 14.574 55.6363 13.978 55.8923 13.466C56.1483 12.954 56.5103 12.556 56.9783 12.272C57.4463 11.984 57.9963 11.84 58.6283 11.84C59.2763 11.84 59.8343 11.986 60.3023 12.278C60.7703 12.566 61.1283 12.968 61.3763 13.484C61.6283 13.996 61.7543 14.586 61.7543 15.254C61.7543 15.93 61.6283 16.526 61.3763 17.042C61.1243 17.554 60.7643 17.956 60.2963 18.248C59.8283 18.536 59.2723 18.68 58.6283 18.68ZM58.6283 17.666C59.3003 17.666 59.8003 17.442 60.1283 16.994C60.4563 16.546 60.6203 15.966 60.6203 15.254C60.6203 14.522 60.4543 13.94 60.1223 13.508C59.7903 13.072 59.2923 12.854 58.6283 12.854C58.1763 12.854 57.8043 12.956 57.5123 13.16C57.2203 13.364 57.0023 13.646 56.8583 14.006C56.7143 14.366 56.6423 14.782 56.6423 15.254C56.6423 15.982 56.8103 16.566 57.1463 17.006C57.4823 17.446 57.9763 17.666 58.6283 17.666ZM64.593 18.5L62.241 12.02H63.321L65.139 17.138L66.951 12.02H68.037L65.685 18.5H64.593ZM71.6959 18.68C71.0599 18.68 70.5039 18.54 70.0279 18.26C69.5559 17.976 69.1879 17.582 68.9239 17.078C68.6599 16.57 68.5279 15.978 68.5279 15.302C68.5279 14.594 68.6579 13.982 68.9179 13.466C69.1779 12.946 69.5399 12.546 70.0039 12.266C70.4719 11.982 71.0199 11.84 71.6479 11.84C72.2999 11.84 72.8539 11.99 73.3099 12.29C73.7699 12.59 74.1139 13.018 74.3419 13.574C74.5739 14.13 74.6739 14.792 74.6419 15.56H73.5619V15.176C73.5499 14.38 73.3879 13.786 73.0759 13.394C72.7639 12.998 72.2999 12.8 71.6839 12.8C71.0239 12.8 70.5219 13.012 70.1779 13.436C69.8339 13.86 69.6619 14.468 69.6619 15.26C69.6619 16.024 69.8339 16.616 70.1779 17.036C70.5219 17.456 71.0119 17.666 71.6479 17.666C72.0759 17.666 72.4479 17.568 72.7639 17.372C73.0799 17.176 73.3279 16.894 73.5079 16.526L74.5339 16.88C74.2819 17.452 73.9019 17.896 73.3939 18.212C72.8899 18.524 72.3239 18.68 71.6959 18.68ZM69.3019 15.56V14.702H74.0899V15.56H69.3019Z" fill="white"/>
</svg>
