<svg width="142" height="44" viewBox="0 0 142 44" fill="none" xmlns="http://www.w3.org/2000/svg">
<g filter="url(#filter0_d_2003_3506)">
<rect x="2" y="1" width="138" height="40" rx="8" fill="#DB012F"/>
<rect x="2.5" y="1.5" width="137" height="39" rx="7.5" stroke="#DB012F"/>
<path d="M28.0003 15.1667V26.8334M22.167 21.0001H33.8337" stroke="white" stroke-width="1.67" stroke-linecap="round" stroke-linejoin="round"/>
<path d="M46.98 26V15.92H48.24L53.497 23.795V15.92H54.757V26H53.497L48.24 18.118V26H46.98ZM59.9904 26.21C59.2484 26.21 58.5997 26.0467 58.0444 25.72C57.4937 25.3887 57.0644 24.929 56.7564 24.341C56.4484 23.7483 56.2944 23.0577 56.2944 22.269C56.2944 21.443 56.446 20.729 56.7494 20.127C57.0527 19.5203 57.475 19.0537 58.0164 18.727C58.5624 18.3957 59.2017 18.23 59.9344 18.23C60.695 18.23 61.3414 18.405 61.8734 18.755C62.41 19.105 62.8114 19.6043 63.0774 20.253C63.348 20.9017 63.4647 21.674 63.4274 22.57H62.1674V22.122C62.1534 21.1933 61.9644 20.5003 61.6004 20.043C61.2364 19.581 60.695 19.35 59.9764 19.35C59.2064 19.35 58.6207 19.5973 58.2194 20.092C57.818 20.5867 57.6174 21.296 57.6174 22.22C57.6174 23.1113 57.818 23.802 58.2194 24.292C58.6207 24.782 59.1924 25.027 59.9344 25.027C60.4337 25.027 60.8677 24.9127 61.2364 24.684C61.605 24.4553 61.8944 24.1263 62.1044 23.697L63.3014 24.11C63.0074 24.7773 62.564 25.2953 61.9714 25.664C61.3834 26.028 60.723 26.21 59.9904 26.21ZM57.1974 22.57V21.569H62.7834V22.57H57.1974ZM66.3224 26L64.0124 18.433L65.2514 18.44L66.9384 23.97L68.6394 18.44H69.7384L71.4324 23.97L73.1264 18.44H74.3584L72.0484 26H71.0124L69.1854 20.253L67.3584 26H66.3224ZM82.4013 26.21C81.622 26.21 80.9336 26.049 80.3363 25.727C79.739 25.405 79.27 24.9547 78.9293 24.376C78.5933 23.7927 78.4253 23.109 78.4253 22.325V15.927L79.6853 15.92V22.22C79.6853 22.696 79.7646 23.1113 79.9233 23.466C80.0866 23.816 80.3013 24.1077 80.5673 24.341C80.8333 24.5743 81.125 24.7493 81.4423 24.866C81.7643 24.978 82.084 25.034 82.4013 25.034C82.7233 25.034 83.0453 24.9757 83.3673 24.859C83.6893 24.7423 83.981 24.5697 84.2423 24.341C84.5083 24.1077 84.7206 23.8137 84.8793 23.459C85.038 23.1043 85.1173 22.6913 85.1173 22.22V15.92H86.3773V22.325C86.3773 23.1043 86.207 23.7857 85.8663 24.369C85.5303 24.9523 85.0636 25.405 84.4663 25.727C83.869 26.049 83.1806 26.21 82.4013 26.21ZM91.8094 26.21C91.1001 26.21 90.5028 26.035 90.0174 25.685C89.5321 25.3303 89.1634 24.852 88.9114 24.25C88.6641 23.6433 88.5404 22.9643 88.5404 22.213C88.5404 21.4523 88.6641 20.771 88.9114 20.169C89.1634 19.567 89.5321 19.0933 90.0174 18.748C90.5074 18.4027 91.1071 18.23 91.8164 18.23C92.5164 18.23 93.1184 18.405 93.6224 18.755C94.1311 19.1003 94.5208 19.574 94.7914 20.176C95.0621 20.778 95.1974 21.457 95.1974 22.213C95.1974 22.969 95.0621 23.648 94.7914 24.25C94.5208 24.852 94.1311 25.3303 93.6224 25.685C93.1184 26.035 92.5141 26.21 91.8094 26.21ZM88.3304 29.36V18.44H89.4434V24.005H89.5834V29.36H88.3304ZM91.6554 25.069C92.1548 25.069 92.5678 24.943 92.8944 24.691C93.2211 24.439 93.4661 24.0983 93.6294 23.669C93.7928 23.235 93.8744 22.7497 93.8744 22.213C93.8744 21.681 93.7928 21.2003 93.6294 20.771C93.4708 20.3417 93.2234 20.001 92.8874 19.749C92.5561 19.497 92.1338 19.371 91.6204 19.371C91.1304 19.371 90.7244 19.4923 90.4024 19.735C90.0804 19.973 89.8401 20.3067 89.6814 20.736C89.5228 21.1607 89.4434 21.653 89.4434 22.213C89.4434 22.7637 89.5204 23.256 89.6744 23.69C89.8331 24.1193 90.0758 24.4577 90.4024 24.705C90.7291 24.9477 91.1468 25.069 91.6554 25.069ZM96.872 26V15.71H98.118V26H96.872ZM103.438 26.21C102.687 26.21 102.038 26.0397 101.492 25.699C100.951 25.3583 100.533 24.887 100.239 24.285C99.9453 23.683 99.7983 22.9923 99.7983 22.213C99.7983 21.4197 99.9476 20.7243 100.246 20.127C100.545 19.5297 100.967 19.0653 101.513 18.734C102.059 18.398 102.701 18.23 103.438 18.23C104.194 18.23 104.845 18.4003 105.391 18.741C105.937 19.077 106.355 19.546 106.644 20.148C106.938 20.7453 107.085 21.4337 107.085 22.213C107.085 23.0017 106.938 23.697 106.644 24.299C106.35 24.8963 105.93 25.3653 105.384 25.706C104.838 26.042 104.19 26.21 103.438 26.21ZM103.438 25.027C104.222 25.027 104.806 24.7657 105.188 24.243C105.571 23.7203 105.762 23.0437 105.762 22.213C105.762 21.359 105.569 20.68 105.181 20.176C104.794 19.6673 104.213 19.413 103.438 19.413C102.911 19.413 102.477 19.532 102.136 19.77C101.796 20.008 101.541 20.337 101.373 20.757C101.205 21.177 101.121 21.6623 101.121 22.213C101.121 23.0623 101.317 23.7437 101.709 24.257C102.101 24.7703 102.678 25.027 103.438 25.027ZM110.775 26.21C110.211 26.21 109.737 26.1073 109.354 25.902C108.976 25.692 108.689 25.4167 108.493 25.076C108.302 24.7353 108.206 24.362 108.206 23.956C108.206 23.5593 108.281 23.2163 108.43 22.927C108.584 22.633 108.799 22.3903 109.074 22.199C109.35 22.003 109.679 21.849 110.061 21.737C110.421 21.639 110.822 21.555 111.265 21.485C111.713 21.4103 112.166 21.3427 112.623 21.282C113.081 21.2213 113.508 21.163 113.904 21.107L113.456 21.366C113.47 20.694 113.335 20.197 113.05 19.875C112.77 19.553 112.285 19.392 111.594 19.392C111.137 19.392 110.736 19.497 110.39 19.707C110.05 19.9123 109.809 20.2483 109.669 20.715L108.486 20.358C108.668 19.6953 109.021 19.175 109.543 18.797C110.066 18.419 110.754 18.23 111.608 18.23C112.294 18.23 112.882 18.3537 113.372 18.601C113.867 18.8437 114.222 19.2123 114.436 19.707C114.544 19.9403 114.611 20.1947 114.639 20.47C114.667 20.7407 114.681 21.0253 114.681 21.324V26H113.575V24.187L113.834 24.355C113.55 24.9663 113.151 25.4283 112.637 25.741C112.129 26.0537 111.508 26.21 110.775 26.21ZM110.964 25.167C111.412 25.167 111.8 25.0877 112.126 24.929C112.458 24.7657 112.724 24.5533 112.924 24.292C113.125 24.026 113.256 23.7367 113.316 23.424C113.386 23.1907 113.424 22.9317 113.428 22.647C113.438 22.3577 113.442 22.136 113.442 21.982L113.876 22.171C113.47 22.227 113.071 22.2807 112.679 22.332C112.287 22.3833 111.916 22.4393 111.566 22.5C111.216 22.556 110.901 22.6237 110.621 22.703C110.416 22.7683 110.222 22.8523 110.04 22.955C109.863 23.0577 109.718 23.1907 109.606 23.354C109.499 23.5127 109.445 23.711 109.445 23.949C109.445 24.1543 109.497 24.3503 109.599 24.537C109.707 24.7237 109.87 24.8753 110.089 24.992C110.313 25.1087 110.605 25.167 110.964 25.167ZM119.469 26.21C118.765 26.21 118.16 26.035 117.656 25.685C117.152 25.3303 116.763 24.852 116.487 24.25C116.217 23.648 116.081 22.969 116.081 22.213C116.081 21.457 116.217 20.778 116.487 20.176C116.763 19.574 117.152 19.1003 117.656 18.755C118.16 18.405 118.762 18.23 119.462 18.23C120.176 18.23 120.776 18.4027 121.261 18.748C121.747 19.0933 122.113 19.567 122.36 20.169C122.612 20.771 122.738 21.4523 122.738 22.213C122.738 22.9643 122.612 23.6433 122.36 24.25C122.113 24.852 121.747 25.3303 121.261 25.685C120.776 26.035 120.179 26.21 119.469 26.21ZM119.623 25.069C120.132 25.069 120.55 24.9477 120.876 24.705C121.203 24.4577 121.443 24.1193 121.597 23.69C121.756 23.256 121.835 22.7637 121.835 22.213C121.835 21.653 121.756 21.1607 121.597 20.736C121.443 20.3067 121.205 19.973 120.883 19.735C120.561 19.4923 120.153 19.371 119.658 19.371C119.145 19.371 118.72 19.497 118.384 19.749C118.053 20.001 117.806 20.3417 117.642 20.771C117.484 21.2003 117.404 21.681 117.404 22.213C117.404 22.7497 117.486 23.235 117.649 23.669C117.813 24.0983 118.058 24.439 118.384 24.691C118.716 24.943 119.129 25.069 119.623 25.069ZM121.835 26V20.435H121.695V15.92H122.948V26H121.835Z" fill="white"/>
</g>
<defs>
<filter id="filter0_d_2003_3506" x="0" y="0" width="142" height="44" filterUnits="userSpaceOnUse" color-interpolation-filters="sRGB">
<feFlood flood-opacity="0" result="BackgroundImageFix"/>
<feColorMatrix in="SourceAlpha" type="matrix" values="0 0 0 0 0 0 0 0 0 0 0 0 0 0 0 0 0 0 127 0" result="hardAlpha"/>
<feOffset dy="1"/>
<feGaussianBlur stdDeviation="1"/>
<feColorMatrix type="matrix" values="0 0 0 0 0.0627451 0 0 0 0 0.0941176 0 0 0 0 0.156863 0 0 0 0.05 0"/>
<feBlend mode="normal" in2="BackgroundImageFix" result="effect1_dropShadow_2003_3506"/>
<feBlend mode="normal" in="SourceGraphic" in2="effect1_dropShadow_2003_3506" result="shape"/>
</filter>
</defs>
</svg>
