<svg width="171" height="44" viewBox="0 0 171 44" fill="none" xmlns="http://www.w3.org/2000/svg">
<g filter="url(#filter0_d_2003_3494)">
<rect x="2" y="1" width="167" height="40" rx="8" fill="white"/>
<rect x="2.5" y="1.5" width="166" height="39" rx="7.5" stroke="#D0D5DD"/>
<path d="M23 21H33M20.5 16H35.5M25.5 26H30.5" stroke="#344054" stroke-width="1.67" stroke-linecap="round" stroke-linejoin="round"/>
<path d="M49.129 26L46.21 15.92H47.512L49.752 23.893L51.985 15.927L53.294 15.92L55.534 23.893L57.767 15.92H59.076L56.157 26H54.911L52.643 18.097L50.375 26H49.129ZM62.7111 26.21C61.9691 26.21 61.3204 26.0467 60.7651 25.72C60.2144 25.3887 59.7851 24.929 59.4771 24.341C59.1691 23.7483 59.0151 23.0577 59.0151 22.269C59.0151 21.443 59.1667 20.729 59.4701 20.127C59.7734 19.5203 60.1957 19.0537 60.7371 18.727C61.2831 18.3957 61.9224 18.23 62.6551 18.23C63.4157 18.23 64.0621 18.405 64.5941 18.755C65.1307 19.105 65.5321 19.6043 65.7981 20.253C66.0687 20.9017 66.1854 21.674 66.1481 22.57H64.8881V22.122C64.8741 21.1933 64.6851 20.5003 64.3211 20.043C63.9571 19.581 63.4157 19.35 62.6971 19.35C61.9271 19.35 61.3414 19.5973 60.9401 20.092C60.5387 20.5867 60.3381 21.296 60.3381 22.22C60.3381 23.1113 60.5387 23.802 60.9401 24.292C61.3414 24.782 61.9131 25.027 62.6551 25.027C63.1544 25.027 63.5884 24.9127 63.9571 24.684C64.3257 24.4553 64.6151 24.1263 64.8251 23.697L66.0221 24.11C65.7281 24.7773 65.2847 25.2953 64.6921 25.664C64.1041 26.028 63.4437 26.21 62.7111 26.21ZM59.9181 22.57V21.569H65.5041V22.57H59.9181ZM70.9826 26.21C70.2406 26.21 69.5919 26.0467 69.0366 25.72C68.4859 25.3887 68.0566 24.929 67.7486 24.341C67.4406 23.7483 67.2866 23.0577 67.2866 22.269C67.2866 21.443 67.4382 20.729 67.7416 20.127C68.0449 19.5203 68.4672 19.0537 69.0086 18.727C69.5546 18.3957 70.1939 18.23 70.9266 18.23C71.6872 18.23 72.3336 18.405 72.8656 18.755C73.4022 19.105 73.8036 19.6043 74.0696 20.253C74.3402 20.9017 74.4569 21.674 74.4196 22.57H73.1596V22.122C73.1456 21.1933 72.9566 20.5003 72.5926 20.043C72.2286 19.581 71.6872 19.35 70.9686 19.35C70.1986 19.35 69.6129 19.5973 69.2116 20.092C68.8102 20.5867 68.6096 21.296 68.6096 22.22C68.6096 23.1113 68.8102 23.802 69.2116 24.292C69.6129 24.782 70.1846 25.027 70.9266 25.027C71.4259 25.027 71.8599 24.9127 72.2286 24.684C72.5972 24.4553 72.8866 24.1263 73.0966 23.697L74.2936 24.11C73.9996 24.7773 73.5562 25.2953 72.9636 25.664C72.3756 26.028 71.7152 26.21 70.9826 26.21ZM68.1896 22.57V21.569H73.7756V22.57H68.1896ZM75.971 26L75.978 15.92H77.238V22.08L80.409 18.44H82.026L78.687 22.22L82.418 26H80.675L77.238 22.36V26H75.971ZM83.2548 26V15.71H84.5008V26H83.2548ZM87.6511 29.36L89.1141 25.384L89.1351 26.56L85.8311 18.44H87.1401L89.7301 24.971H89.2821L91.7111 18.44H92.9781L88.8621 29.36H87.6511ZM92.8732 27.568L92.9502 26.987C93.1462 27.001 93.2932 26.9637 93.3912 26.875C93.4892 26.7863 93.5522 26.665 93.5802 26.511C93.6082 26.357 93.6129 26.1867 93.5942 26H92.8732V24.418H94.2452V26.21C94.2452 26.7 94.1239 27.0687 93.8812 27.316C93.6432 27.5633 93.3072 27.6473 92.8732 27.568ZM108.749 26L108.756 21.163C108.756 20.5983 108.605 20.1573 108.301 19.84C108.003 19.518 107.613 19.357 107.132 19.357C106.852 19.357 106.586 19.4223 106.334 19.553C106.082 19.679 105.877 19.8797 105.718 20.155C105.56 20.4257 105.48 20.7733 105.48 21.198L104.822 20.932C104.813 20.3953 104.923 19.9263 105.151 19.525C105.385 19.119 105.702 18.804 106.103 18.58C106.505 18.356 106.957 18.244 107.461 18.244C108.25 18.244 108.871 18.4843 109.323 18.965C109.776 19.441 110.002 20.0827 110.002 20.89L109.995 26H108.749ZM99.7054 26V18.44H100.818V20.463H100.958V26H99.7054ZM104.234 26L104.241 21.212C104.241 20.6333 104.092 20.1807 103.793 19.854C103.495 19.5227 103.098 19.357 102.603 19.357C102.113 19.357 101.717 19.525 101.413 19.861C101.11 20.197 100.958 20.6427 100.958 21.198L100.3 20.806C100.3 20.316 100.417 19.8773 100.65 19.49C100.884 19.1027 101.201 18.7993 101.602 18.58C102.004 18.356 102.459 18.244 102.967 18.244C103.476 18.244 103.919 18.3513 104.297 18.566C104.675 18.7807 104.967 19.0887 105.172 19.49C105.378 19.8867 105.48 20.3603 105.48 20.911L105.473 26H104.234ZM114.977 26.21C114.226 26.21 113.577 26.0397 113.031 25.699C112.49 25.3583 112.072 24.887 111.778 24.285C111.484 23.683 111.337 22.9923 111.337 22.213C111.337 21.4197 111.487 20.7243 111.785 20.127C112.084 19.5297 112.506 19.0653 113.052 18.734C113.598 18.398 114.24 18.23 114.977 18.23C115.733 18.23 116.384 18.4003 116.93 18.741C117.476 19.077 117.894 19.546 118.183 20.148C118.477 20.7453 118.624 21.4337 118.624 22.213C118.624 23.0017 118.477 23.697 118.183 24.299C117.889 24.8963 117.469 25.3653 116.923 25.706C116.377 26.042 115.729 26.21 114.977 26.21ZM114.977 25.027C115.761 25.027 116.345 24.7657 116.727 24.243C117.11 23.7203 117.301 23.0437 117.301 22.213C117.301 21.359 117.108 20.68 116.72 20.176C116.333 19.6673 115.752 19.413 114.977 19.413C114.45 19.413 114.016 19.532 113.675 19.77C113.335 20.008 113.08 20.337 112.912 20.757C112.744 21.177 112.66 21.6623 112.66 22.213C112.66 23.0623 112.856 23.7437 113.248 24.257C113.64 24.7703 114.217 25.027 114.977 25.027ZM125.549 26V22.213C125.549 21.8537 125.516 21.5083 125.451 21.177C125.39 20.8457 125.28 20.5493 125.122 20.288C124.968 20.022 124.758 19.812 124.492 19.658C124.23 19.504 123.899 19.427 123.498 19.427C123.185 19.427 122.9 19.4807 122.644 19.588C122.392 19.6907 122.175 19.8493 121.993 20.064C121.811 20.2787 121.668 20.5493 121.566 20.876C121.468 21.198 121.419 21.5783 121.419 22.017L120.6 21.765C120.6 21.0323 120.73 20.4047 120.992 19.882C121.258 19.3547 121.629 18.951 122.105 18.671C122.585 18.3863 123.15 18.244 123.799 18.244C124.289 18.244 124.706 18.321 125.052 18.475C125.397 18.629 125.684 18.8343 125.913 19.091C126.141 19.343 126.321 19.6277 126.452 19.945C126.582 20.2577 126.673 20.5773 126.725 20.904C126.781 21.226 126.809 21.5317 126.809 21.821V26H125.549ZM120.159 26V18.44H121.279V20.463H121.419V26H120.159ZM132.849 26C132.401 26.0887 131.958 26.1237 131.519 26.105C131.085 26.091 130.698 26.0047 130.357 25.846C130.017 25.6827 129.758 25.4307 129.58 25.09C129.431 24.7913 129.349 24.4903 129.335 24.187C129.326 23.879 129.321 23.5313 129.321 23.144V16.34H130.567V23.088C130.567 23.396 130.57 23.6597 130.574 23.879C130.584 24.0983 130.633 24.2873 130.721 24.446C130.889 24.7447 131.155 24.9197 131.519 24.971C131.888 25.0223 132.331 25.0083 132.849 24.929V26ZM127.788 19.469V18.44H132.849V19.469H127.788ZM139.767 26V22.213C139.767 21.8537 139.735 21.5083 139.669 21.177C139.609 20.8457 139.499 20.5493 139.34 20.288C139.186 20.022 138.976 19.812 138.71 19.658C138.449 19.504 138.118 19.427 137.716 19.427C137.404 19.427 137.119 19.4807 136.862 19.588C136.61 19.6907 136.393 19.8493 136.211 20.064C136.029 20.2787 135.887 20.5493 135.784 20.876C135.686 21.198 135.637 21.5783 135.637 22.017L134.818 21.765C134.818 21.0323 134.949 20.4047 135.21 19.882C135.476 19.3547 135.847 18.951 136.323 18.671C136.804 18.3863 137.369 18.244 138.017 18.244C138.507 18.244 138.925 18.321 139.27 18.475C139.616 18.629 139.903 18.8343 140.131 19.091C140.36 19.343 140.54 19.6277 140.67 19.945C140.801 20.2577 140.892 20.5773 140.943 20.904C140.999 21.226 141.027 21.5317 141.027 21.821V26H139.767ZM134.377 26V15.92H135.497V21.485H135.637V26H134.377ZM142.987 26V15.71H144.233V26H142.987ZM147.384 29.36L148.847 25.384L148.868 26.56L145.564 18.44H146.873L149.463 24.971H149.015L151.444 18.44H152.711L148.595 29.36H147.384Z" fill="#344054"/>
</g>
<defs>
<filter id="filter0_d_2003_3494" x="0" y="0" width="171" height="44" filterUnits="userSpaceOnUse" color-interpolation-filters="sRGB">
<feFlood flood-opacity="0" result="BackgroundImageFix"/>
<feColorMatrix in="SourceAlpha" type="matrix" values="0 0 0 0 0 0 0 0 0 0 0 0 0 0 0 0 0 0 127 0" result="hardAlpha"/>
<feOffset dy="1"/>
<feGaussianBlur stdDeviation="1"/>
<feColorMatrix type="matrix" values="0 0 0 0 0.0627451 0 0 0 0 0.0941176 0 0 0 0 0.156863 0 0 0 0.05 0"/>
<feBlend mode="normal" in2="BackgroundImageFix" result="effect1_dropShadow_2003_3494"/>
<feBlend mode="normal" in="SourceGraphic" in2="effect1_dropShadow_2003_3494" result="shape"/>
</filter>
</defs>
</svg>
